<svg id="4837159d-0ec1-4db5-9869-3e251c13abac" data-name="Layer 1" xmlns="http://www.w3.org/2000/svg" viewBox="0 0 222.5 170.79"><title>Artboard 1</title><path d="M81.62,11.47q-.05.48-.21,1.56T81,15.51q-.21,1.4-.53,3t-.69,3-.32,1.35Q79.24,24,78.84,26T78,30.4q-.45,2.4-.82,4.75t-.63,4.44A28.11,28.11,0,0,0,76.28,43a13.37,13.37,0,0,0,.05,1.35,3.87,3.87,0,0,0,.16.82,3.38,3.38,0,0,0,.21.58,1.28,1.28,0,0,1,.32.63,1.18,1.18,0,0,1-.79,1,7.49,7.49,0,0,1-1.77.61,15.4,15.4,0,0,1-1.85.29l-1,.08a3.41,3.41,0,0,1-2.19-.48,2.28,2.28,0,0,1-.5-1.69,16.36,16.36,0,0,1,.13-1.9q.13-1.11.34-2.4t.48-2.69q.26-1.4.58-2.72.69-3.12,1.58-6.55a.31.31,0,0,0,.05-.21.34.34,0,0,0-.21-.32l-.21-.11q-1.11-.1-2.61-.13l-3.14,0a.78.78,0,0,0-.58.21.81.81,0,0,0-.16.21q-2.06,3.33-4.07,6.31T57.38,41.2Q55.63,43.52,54.26,45A9.62,9.62,0,0,1,52.09,47a7.72,7.72,0,0,1-1.72.66A16.74,16.74,0,0,1,48.5,48q-1,.13-1.82.19t-1.51.05q-.63,0-1.24-.05c-.4,0-.61-.19-.61-.48a.76.76,0,0,1,.26-.53.84.84,0,0,1,.32-.21,28,28,0,0,0,4.28-3q2.22-1.87,4.49-4.17t4.49-4.91q2.22-2.61,4.22-5.2v-.05a.11.11,0,0,1,0-.08.11.11,0,0,0,0-.08c0-.11-.09-.16-.26-.16q-2.32,0-3.46.08t-1.56.08q-.32,0-.4-.16a.7.7,0,0,1-.08-.32,1.24,1.24,0,0,1,.45-.82,4.82,4.82,0,0,1,1.14-.82,7.15,7.15,0,0,1,1.43-.58A4.89,4.89,0,0,1,60,26.52l1.06,0q.53,0,1.16,0H63.4a.57.57,0,0,0,.42-.16A.83.83,0,0,0,64,26.2q1.32-1.74,2.77-3.75t2.72-4a35.23,35.23,0,0,0,2.14-3.93,11.15,11.15,0,0,0,1-3.38q0-.63,1.35-1.16a12.33,12.33,0,0,1,4.2-.53,5.58,5.58,0,0,1,2.8.45A1.84,1.84,0,0,1,81.62,11.47Zm-7.08,5.07c0-.25-.07-.37-.21-.37a.85.85,0,0,0-.37.11.62.62,0,0,0-.16.11l-2,2.85q-.9,1.32-2.09,3.12T67.3,26.2a0,0,0,0,0-.05.05v.16q0,.16.21.16l1.87,0,1.51,0h1.37a.48.48,0,0,0,.42-.26A.66.66,0,0,0,72.8,26q.58-2.38.92-4.12t.55-3Q74.49,17.54,74.54,16.54Z" fill="none" stroke="#000" stroke-linecap="round" stroke-linejoin="round" stroke-width="16"/><path d="M107.18,51.08a1.61,1.61,0,0,1-.66,1.16,7,7,0,0,1-1.69,1.06,12,12,0,0,1-2.24.77,9.63,9.63,0,0,1-5.25-.16,6.83,6.83,0,0,1-2.43-1.35,6.28,6.28,0,0,1-1.61-2.19,7.21,7.21,0,0,1-.58-3,11.33,11.33,0,0,1,.63-3.43q.63-2,1.48-4t1.72-3.83q.87-1.82,1.4-3.09l.53-1.16q.21-.48.45-1.06t.4-1.06a1.71,1.71,0,0,0,.11-.63c0-.35-.16-.53-.48-.53a4.84,4.84,0,0,0-.84.26.8.8,0,0,0-.32.26q-1.85,1.74-3.56,3.7T91,36.76q-1.51,2-2.69,3.7t-2,3.06q-.27.48-.53.9l-.5.82-.45.77A3.15,3.15,0,0,1,83,47.48a7.22,7.22,0,0,1-2.38.42,5.49,5.49,0,0,1-1.45-.21q-.76-.21-.77-.79a.92.92,0,0,1,.05-.37.22.22,0,0,1,.05-.16q.27-.69.71-1.74t1-2.32l1.16-2.64q.61-1.37,1.24-2.75,1.43-3.17,3.12-6.76.42-.9.79-1.85.26-.74.53-1.58a5,5,0,0,0,.26-1.43l-.08-.37a1.09,1.09,0,0,1,0-.26,1.17,1.17,0,0,1,.13-.53,1,1,0,0,1,.66-.42,8.59,8.59,0,0,1,1.43-.26,16.83,16.83,0,0,1,2.27-.16,7,7,0,0,1,1.45.13c.4.09.61.27.61.55a7.63,7.63,0,0,1-.58,2.51q-.58,1.56-1.4,3.25L90.2,33.09q-.82,1.66-1.29,2.77a.15.15,0,0,0-.05.11v.16a.14.14,0,0,0,.16.16.36.36,0,0,0,.26-.11.62.62,0,0,0,.11-.16q.05-.1.82-1.08t2-2.43q1.19-1.45,2.72-3.09T98,26.36A20.93,20.93,0,0,1,101.18,24a5.66,5.66,0,0,1,2.83-.92,3.24,3.24,0,0,1,1.72.5,2,2,0,0,1,.82,1.87,5.93,5.93,0,0,1-.21,1.45,11.08,11.08,0,0,1-.74,1.93l-1.14,2.48-1.29,2.8q-.32.74-1.11,2.38t-1.61,3.59Q99.62,42,99,44a11.54,11.54,0,0,0-.61,3.33,3.92,3.92,0,0,0,1.19,3A4.81,4.81,0,0,0,103,51.44a9.32,9.32,0,0,0,1.45-.13,6.51,6.51,0,0,0,1.72-.55.42.42,0,0,0,.16-.05.37.37,0,0,0,.16,0,.36.36,0,0,1,.16,0,.88.88,0,0,1,.34.08A.33.33,0,0,1,107.18,51.08Z" fill="none" stroke="#000" stroke-linecap="round" stroke-linejoin="round" stroke-width="16"/><path d="M130.25,24.19a17.32,17.32,0,0,1-1.51,3.35q-1.35,2.56-3.14,6.58-1.22,2.8-2.22,5.33a54.09,54.09,0,0,1-2.32,5.07q-1.11,2.75-2.32,5.39-1.06,2.27-2.4,4.75A32,32,0,0,1,113.51,59a24.6,24.6,0,0,1-2.27,2.48,20.54,20.54,0,0,1-2.67,2.17,13.66,13.66,0,0,1-2.88,1.5,8,8,0,0,1-2.8.55q-.48,0-.48-.32a1.16,1.16,0,0,1,.26-.63.8.8,0,0,1,.26-.32,13.18,13.18,0,0,0,3-2.9,45.5,45.5,0,0,0,3.06-4.38q1.51-2.43,2.93-5.12t2.61-5.18q1.19-2.48,2.09-4.54l1.37-3.17a.6.6,0,0,0,.05-.26.09.09,0,0,0-.11-.11.92.92,0,0,0-.26.11.41.41,0,0,1-.16.05,40.54,40.54,0,0,1-2.83,3.59,27,27,0,0,1-2.88,2.83,14,14,0,0,1-2.77,1.85,5.93,5.93,0,0,1-2.61.66,2.8,2.8,0,0,1-1.56-.4,2.64,2.64,0,0,1-.92-1,4.12,4.12,0,0,1-.42-1.32,9.09,9.09,0,0,1-.11-1.35,15.94,15.94,0,0,1,.74-4.65,24.29,24.29,0,0,1,2-4.75,28.5,28.5,0,0,1,3-4.41,26.94,26.94,0,0,1,3.7-3.67,18.28,18.28,0,0,1,4-2.51,9.78,9.78,0,0,1,4-.92,7.12,7.12,0,0,1,1.9.21,7.21,7.21,0,0,1,1.21.45q.47.24.77.42a1.2,1.2,0,0,0,.66.18h.21a.15.15,0,0,0,.11-.05l1.29-.42A6.06,6.06,0,0,1,129,23.4a1.83,1.83,0,0,1,.87.19A.64.64,0,0,1,130.25,24.19Zm-6.76,1.64a1,1,0,0,0-.29-.69,1.36,1.36,0,0,0-1-.32,4.36,4.36,0,0,0-2.51,1,17,17,0,0,0-2.72,2.54,33.41,33.41,0,0,0-2.67,3.49A38,38,0,0,0,112,35.65a31.2,31.2,0,0,0-1.58,3.56,8.28,8.28,0,0,0-.61,2.67,1.12,1.12,0,0,0,.21.79,1.22,1.22,0,0,0,.84.21,3.42,3.42,0,0,0,1.9-1.11A26.7,26.7,0,0,0,115.39,39q1.4-1.72,2.83-3.8t2.61-4q1.19-1.87,1.93-3.35A5.87,5.87,0,0,0,123.49,25.83Z" fill="none" stroke="#000" stroke-linecap="round" stroke-linejoin="round" stroke-width="16"/><path d="M152.06,23.93a6,6,0,0,1-.63,1.53q-.63,1.27-1.48,2.9t-1.61,3.33a13.07,13.07,0,0,0-1,2.8,1.31,1.31,0,0,1-.11.58.75.75,0,0,1-.74.53l-.63-.08a4,4,0,0,1-1.13-.37,3.4,3.4,0,0,1-1.11-.87,2.34,2.34,0,0,1-.5-1.58,5.17,5.17,0,0,1,.19-1.29,6.42,6.42,0,0,1,.71-1.61,1.22,1.22,0,0,0,.16-.48.19.19,0,0,0-.21-.21.88.88,0,0,0-.26.05l-.26.11-.26.16a21.62,21.62,0,0,0-3.12,3.12q-1.64,2-3.12,4t-2.67,4a32.38,32.38,0,0,0-1.72,3q-.21.48-.42.9t-.42.82l-.42.77q-1,1.85-4.28,1.85h-.5a2.6,2.6,0,0,1-.5-.05,1.19,1.19,0,0,1-.9-.34,1,1,0,0,1-.21-.55.91.91,0,0,1,.05-.37.21.21,0,0,1,.05-.16q.69-2,1.64-4.07l1.9-4.2q1-2.09,1.9-4.09t1.69-3.7q.74-1.69,1.19-3a6.69,6.69,0,0,0,.45-2,.91.91,0,0,0-.05-.37.74.74,0,0,1-.05-.32.94.94,0,0,1,.16-.48,1.15,1.15,0,0,1,.69-.42,11.94,11.94,0,0,1,1.27-.21L137,23.4q.63-.05,1.27-.05a6.4,6.4,0,0,1,1.53.16q.63.16.63.58a7.09,7.09,0,0,1-.63,2.14q-.63,1.56-1.37,3.25-.9,2-2,4.22a.15.15,0,0,0-.05.11V34a.14.14,0,0,0,.16.16.36.36,0,0,0,.26-.11.62.62,0,0,0,.11-.16q.26-.32,1-1.27t1.77-2.14q1.06-1.19,2.4-2.48a29.48,29.48,0,0,1,2.8-2.38,15.84,15.84,0,0,1,3-1.77,7.33,7.33,0,0,1,3-.69,2,2,0,0,1,.92.19A.64.64,0,0,1,152.06,23.93Z" fill="none" stroke="#000" stroke-linecap="round" stroke-linejoin="round" stroke-width="16"/><path d="M173.82,24a1.59,1.59,0,0,1-.16.53l-1,2q-.66,1.29-1.45,2.9t-1.61,3.43q-.82,1.82-1.51,3.56l-3.22,8q-1.06,2.8-2.27,5.44-1.06,2.27-2.32,4.75a28.46,28.46,0,0,1-2.59,4.23,16.68,16.68,0,0,1-2.54,2.69,19.89,19.89,0,0,1-2.93,2.09,16.31,16.31,0,0,1-2.9,1.35,7.8,7.8,0,0,1-2.46.48c-.32,0-.48-.12-.48-.37s.19-.55.58-.9a10.28,10.28,0,0,0,2.06-1.8,27.75,27.75,0,0,0,2.09-2.61q1-1.45,2-3.09t1.9-3.27q2.11-3.8,4.07-8.24.16-.37.66-1.37t1-2.14q.5-1.14.9-2.09a4.36,4.36,0,0,0,.4-1.27c0-.14-.05-.21-.16-.21a.43.43,0,0,0-.26.16.62.62,0,0,1-.11.16s-.23.29-.58.77-.82,1.06-1.4,1.77-1.27,1.46-2.06,2.27A26.86,26.86,0,0,1,155,45.5a14.77,14.77,0,0,1-2.69,1.72,6.07,6.07,0,0,1-2.67.69,3.56,3.56,0,0,1-1-.13,2.34,2.34,0,0,1-1.53-1.32,3.24,3.24,0,0,1-.26-1.4,9.83,9.83,0,0,1,1-4.2q1-2.14,2-4.3.74-1.74,1.53-3.27t1.45-3a22.37,22.37,0,0,0,1.08-2.8,9.3,9.3,0,0,0,.42-2.75,1.72,1.72,0,0,1,.13-.71q.13-.29.71-.4.74-.16,1.64-.32a10.31,10.31,0,0,1,1.79-.16,4,4,0,0,1,1.53.26.92.92,0,0,1,.63.9,1.6,1.6,0,0,1-.05.37l-.11.42a2.09,2.09,0,0,0-.16.42,34.42,34.42,0,0,1-1.32,3.54q-.9,2.11-1.85,4.07-1.11,2.32-2.38,4.75-.42,1.06-.71,1.72a12.28,12.28,0,0,0-.5,1.35,3.92,3.92,0,0,0-.21,1.06q0,1,.74,1a2.6,2.6,0,0,0,.79-.26,3.31,3.31,0,0,0,.37-.21,27,27,0,0,0,3.72-3.85,59.09,59.09,0,0,0,3.51-4.83q1.64-2.51,3-4.91t2.14-4.15a1.85,1.85,0,0,1,.37-.58,4,4,0,0,1,.42-.37,1.87,1.87,0,0,1,.53-.26,9.41,9.41,0,0,1,1.64-.34,11.48,11.48,0,0,1,1.16-.08,4.62,4.62,0,0,1,1.35.19Q173.82,23.56,173.82,24Z" fill="none" stroke="#000" stroke-linecap="round" stroke-linejoin="round" stroke-width="16"/><path d="M81.62,11.47q-.05.48-.21,1.56T81,15.51q-.21,1.4-.53,3t-.69,3-.32,1.35Q79.24,24,78.84,26T78,30.4q-.45,2.4-.82,4.75t-.63,4.44A28.11,28.11,0,0,0,76.28,43a13.37,13.37,0,0,0,.05,1.35,3.87,3.87,0,0,0,.16.82,3.38,3.38,0,0,0,.21.58,1.28,1.28,0,0,1,.32.63,1.18,1.18,0,0,1-.79,1,7.49,7.49,0,0,1-1.77.61,15.4,15.4,0,0,1-1.85.29l-1,.08a3.41,3.41,0,0,1-2.19-.48,2.28,2.28,0,0,1-.5-1.69,16.36,16.36,0,0,1,.13-1.9q.13-1.11.34-2.4t.48-2.69q.26-1.4.58-2.72.69-3.12,1.58-6.55a.31.31,0,0,0,.05-.21.34.34,0,0,0-.21-.32l-.21-.11q-1.11-.1-2.61-.13l-3.14,0a.78.78,0,0,0-.58.21.81.81,0,0,0-.16.21q-2.06,3.33-4.07,6.31T57.38,41.2Q55.63,43.52,54.26,45A9.62,9.62,0,0,1,52.09,47a7.72,7.72,0,0,1-1.72.66A16.74,16.74,0,0,1,48.5,48q-1,.13-1.82.19t-1.51.05q-.63,0-1.24-.05c-.4,0-.61-.19-.61-.48a.76.76,0,0,1,.26-.53.84.84,0,0,1,.32-.21,28,28,0,0,0,4.28-3q2.22-1.87,4.49-4.17t4.49-4.91q2.22-2.61,4.22-5.2v-.05a.11.11,0,0,1,0-.08.11.11,0,0,0,0-.08c0-.11-.09-.16-.26-.16q-2.32,0-3.46.08t-1.56.08q-.32,0-.4-.16a.7.7,0,0,1-.08-.32,1.24,1.24,0,0,1,.45-.82,4.82,4.82,0,0,1,1.14-.82,7.15,7.15,0,0,1,1.43-.58A4.89,4.89,0,0,1,60,26.52l1.06,0q.53,0,1.16,0H63.4a.57.57,0,0,0,.42-.16A.83.83,0,0,0,64,26.2q1.32-1.74,2.77-3.75t2.72-4a35.23,35.23,0,0,0,2.14-3.93,11.15,11.15,0,0,0,1-3.38q0-.63,1.35-1.16a12.33,12.33,0,0,1,4.2-.53,5.58,5.58,0,0,1,2.8.45A1.84,1.84,0,0,1,81.62,11.47Zm-7.08,5.07c0-.25-.07-.37-.21-.37a.85.85,0,0,0-.37.11.62.62,0,0,0-.16.11l-2,2.85q-.9,1.32-2.09,3.12T67.3,26.2a0,0,0,0,0-.05.05v.16q0,.16.21.16l1.87,0,1.51,0h1.37a.48.48,0,0,0,.42-.26A.66.66,0,0,0,72.8,26q.58-2.38.92-4.12t.55-3Q74.49,17.54,74.54,16.54Z"/><path d="M107.18,51.08a1.61,1.61,0,0,1-.66,1.16,7,7,0,0,1-1.69,1.06,12,12,0,0,1-2.24.77,9.63,9.63,0,0,1-5.25-.16,6.83,6.83,0,0,1-2.43-1.35,6.28,6.28,0,0,1-1.61-2.19,7.21,7.21,0,0,1-.58-3,11.33,11.33,0,0,1,.63-3.43q.63-2,1.48-4t1.72-3.83q.87-1.82,1.4-3.09l.53-1.16q.21-.48.45-1.06t.4-1.06a1.71,1.71,0,0,0,.11-.63c0-.35-.16-.53-.48-.53a4.84,4.84,0,0,0-.84.26.8.8,0,0,0-.32.26q-1.85,1.74-3.56,3.7T91,36.76q-1.51,2-2.69,3.7t-2,3.06q-.27.48-.53.9l-.5.82-.45.77A3.15,3.15,0,0,1,83,47.48a7.22,7.22,0,0,1-2.38.42,5.49,5.49,0,0,1-1.45-.21q-.76-.21-.77-.79a.92.92,0,0,1,.05-.37.22.22,0,0,1,.05-.16q.27-.69.71-1.74t1-2.32l1.16-2.64q.61-1.37,1.24-2.75,1.43-3.17,3.12-6.76.42-.9.79-1.85.26-.74.53-1.58a5,5,0,0,0,.26-1.43l-.08-.37a1.09,1.09,0,0,1,0-.26,1.17,1.17,0,0,1,.13-.53,1,1,0,0,1,.66-.42,8.59,8.59,0,0,1,1.43-.26,16.83,16.83,0,0,1,2.27-.16,7,7,0,0,1,1.45.13c.4.09.61.27.61.55a7.63,7.63,0,0,1-.58,2.51q-.58,1.56-1.4,3.25L90.2,33.09q-.82,1.66-1.29,2.77a.15.15,0,0,0-.05.11v.16a.14.14,0,0,0,.16.16.36.36,0,0,0,.26-.11.62.62,0,0,0,.11-.16q.05-.1.82-1.08t2-2.43q1.19-1.45,2.72-3.09T98,26.36A20.93,20.93,0,0,1,101.18,24a5.66,5.66,0,0,1,2.83-.92,3.24,3.24,0,0,1,1.72.5,2,2,0,0,1,.82,1.87,5.93,5.93,0,0,1-.21,1.45,11.08,11.08,0,0,1-.74,1.93l-1.14,2.48-1.29,2.8q-.32.74-1.11,2.38t-1.61,3.59Q99.62,42,99,44a11.54,11.54,0,0,0-.61,3.33,3.92,3.92,0,0,0,1.19,3A4.81,4.81,0,0,0,103,51.44a9.32,9.32,0,0,0,1.45-.13,6.51,6.51,0,0,0,1.72-.55.42.42,0,0,0,.16-.05.37.37,0,0,0,.16,0,.36.36,0,0,1,.16,0,.88.88,0,0,1,.34.08A.33.33,0,0,1,107.18,51.08Z"/><path d="M130.25,24.19a17.32,17.32,0,0,1-1.51,3.35q-1.35,2.56-3.14,6.58-1.22,2.8-2.22,5.33a54.09,54.09,0,0,1-2.32,5.07q-1.11,2.75-2.32,5.39-1.06,2.27-2.4,4.75A32,32,0,0,1,113.51,59a24.6,24.6,0,0,1-2.27,2.48,20.54,20.54,0,0,1-2.67,2.17,13.66,13.66,0,0,1-2.88,1.5,8,8,0,0,1-2.8.55q-.48,0-.48-.32a1.16,1.16,0,0,1,.26-.63.8.8,0,0,1,.26-.32,13.18,13.18,0,0,0,3-2.9,45.5,45.5,0,0,0,3.06-4.38q1.51-2.43,2.93-5.12t2.61-5.18q1.19-2.48,2.09-4.54l1.37-3.17a.6.6,0,0,0,.05-.26.09.09,0,0,0-.11-.11.92.92,0,0,0-.26.11.41.41,0,0,1-.16.05,40.54,40.54,0,0,1-2.83,3.59,27,27,0,0,1-2.88,2.83,14,14,0,0,1-2.77,1.85,5.93,5.93,0,0,1-2.61.66,2.8,2.8,0,0,1-1.56-.4,2.64,2.64,0,0,1-.92-1,4.12,4.12,0,0,1-.42-1.32,9.09,9.09,0,0,1-.11-1.35,15.94,15.94,0,0,1,.74-4.65,24.29,24.29,0,0,1,2-4.75,28.5,28.5,0,0,1,3-4.41,26.94,26.94,0,0,1,3.7-3.67,18.28,18.28,0,0,1,4-2.51,9.78,9.78,0,0,1,4-.92,7.12,7.12,0,0,1,1.9.21,7.21,7.21,0,0,1,1.21.45q.47.24.77.42a1.2,1.2,0,0,0,.66.18h.21a.15.15,0,0,0,.11-.05l1.29-.42A6.06,6.06,0,0,1,129,23.4a1.83,1.83,0,0,1,.87.19A.64.64,0,0,1,130.25,24.19Zm-6.76,1.64a1,1,0,0,0-.29-.69,1.36,1.36,0,0,0-1-.32,4.36,4.36,0,0,0-2.51,1,17,17,0,0,0-2.72,2.54,33.41,33.41,0,0,0-2.67,3.49A38,38,0,0,0,112,35.65a31.2,31.2,0,0,0-1.58,3.56,8.28,8.28,0,0,0-.61,2.67,1.12,1.12,0,0,0,.21.79,1.22,1.22,0,0,0,.84.21,3.42,3.42,0,0,0,1.9-1.11A26.7,26.7,0,0,0,115.39,39q1.4-1.72,2.83-3.8t2.61-4q1.19-1.87,1.93-3.35A5.87,5.87,0,0,0,123.49,25.83Z"/><path d="M152.06,23.93a6,6,0,0,1-.63,1.53q-.63,1.27-1.48,2.9t-1.61,3.33a13.07,13.07,0,0,0-1,2.8,1.31,1.31,0,0,1-.11.58.75.75,0,0,1-.74.53l-.63-.08a4,4,0,0,1-1.13-.37,3.4,3.4,0,0,1-1.11-.87,2.34,2.34,0,0,1-.5-1.58,5.17,5.17,0,0,1,.19-1.29,6.42,6.42,0,0,1,.71-1.61,1.22,1.22,0,0,0,.16-.48.19.19,0,0,0-.21-.21.88.88,0,0,0-.26.05l-.26.11-.26.16a21.62,21.62,0,0,0-3.12,3.12q-1.64,2-3.12,4t-2.67,4a32.38,32.38,0,0,0-1.72,3q-.21.48-.42.9t-.42.82l-.42.77q-1,1.85-4.28,1.85h-.5a2.6,2.6,0,0,1-.5-.05,1.19,1.19,0,0,1-.9-.34,1,1,0,0,1-.21-.55.91.91,0,0,1,.05-.37.21.21,0,0,1,.05-.16q.69-2,1.64-4.07l1.9-4.2q1-2.09,1.9-4.09t1.69-3.7q.74-1.69,1.19-3a6.69,6.69,0,0,0,.45-2,.91.91,0,0,0-.05-.37.74.74,0,0,1-.05-.32.94.94,0,0,1,.16-.48,1.15,1.15,0,0,1,.69-.42,11.94,11.94,0,0,1,1.27-.21L137,23.4q.63-.05,1.27-.05a6.4,6.4,0,0,1,1.53.16q.63.16.63.58a7.09,7.09,0,0,1-.63,2.14q-.63,1.56-1.37,3.25-.9,2-2,4.22a.15.15,0,0,0-.05.11V34a.14.14,0,0,0,.16.16.36.36,0,0,0,.26-.11.62.62,0,0,0,.11-.16q.26-.32,1-1.27t1.77-2.14q1.06-1.19,2.4-2.48a29.48,29.48,0,0,1,2.8-2.38,15.84,15.84,0,0,1,3-1.77,7.33,7.33,0,0,1,3-.69,2,2,0,0,1,.92.19A.64.64,0,0,1,152.06,23.93Z"/><path d="M173.82,24a1.59,1.59,0,0,1-.16.53l-1,2q-.66,1.29-1.45,2.9t-1.61,3.43q-.82,1.82-1.51,3.56l-3.22,8q-1.06,2.8-2.27,5.44-1.06,2.27-2.32,4.75a28.46,28.46,0,0,1-2.59,4.23,16.68,16.68,0,0,1-2.54,2.69,19.89,19.89,0,0,1-2.93,2.09,16.31,16.31,0,0,1-2.9,1.35,7.8,7.8,0,0,1-2.46.48c-.32,0-.48-.12-.48-.37s.19-.55.58-.9a10.28,10.28,0,0,0,2.06-1.8,27.75,27.75,0,0,0,2.09-2.61q1-1.45,2-3.09t1.9-3.27q2.11-3.8,4.07-8.24.16-.37.66-1.37t1-2.14q.5-1.14.9-2.09a4.36,4.36,0,0,0,.4-1.27c0-.14-.05-.21-.16-.21a.43.43,0,0,0-.26.16.62.62,0,0,1-.11.16s-.23.29-.58.77-.82,1.06-1.4,1.77-1.27,1.46-2.06,2.27A26.86,26.86,0,0,1,155,45.5a14.77,14.77,0,0,1-2.69,1.72,6.07,6.07,0,0,1-2.67.69,3.56,3.56,0,0,1-1-.13,2.34,2.34,0,0,1-1.53-1.32,3.24,3.24,0,0,1-.26-1.4,9.83,9.83,0,0,1,1-4.2q1-2.14,2-4.3.74-1.74,1.53-3.27t1.45-3a22.37,22.37,0,0,0,1.08-2.8,9.3,9.3,0,0,0,.42-2.75,1.72,1.72,0,0,1,.13-.71q.13-.29.71-.4.74-.16,1.64-.32a10.31,10.31,0,0,1,1.79-.16,4,4,0,0,1,1.53.26.92.92,0,0,1,.63.9,1.6,1.6,0,0,1-.05.37l-.11.42a2.09,2.09,0,0,0-.16.42,34.42,34.42,0,0,1-1.32,3.54q-.9,2.11-1.85,4.07-1.11,2.32-2.38,4.75-.42,1.06-.71,1.72a12.28,12.28,0,0,0-.5,1.35,3.92,3.92,0,0,0-.21,1.06q0,1,.74,1a2.6,2.6,0,0,0,.79-.26,3.31,3.31,0,0,0,.37-.21,27,27,0,0,0,3.72-3.85,59.09,59.09,0,0,0,3.51-4.83q1.64-2.51,3-4.91t2.14-4.15a1.85,1.85,0,0,1,.37-.58,4,4,0,0,1,.42-.37,1.87,1.87,0,0,1,.53-.26,9.41,9.41,0,0,1,1.64-.34,11.48,11.48,0,0,1,1.16-.08,4.62,4.62,0,0,1,1.35.19Q173.82,23.56,173.82,24Z"/><path d="M98.07,68.39q0,.91-1.64,1.73a23.61,23.61,0,0,0-4.64,3.09,72.39,72.39,0,0,0-5.37,4.87,90.26,90.26,0,0,0-7,8Q74.6,92,71,96.77t-6,8q-2.91,3.91-4.82,6.82Q56.78,116,53.77,120q-1.36,1.73-2.73,3.55t-2.73,3.59l-2.59,3.37-2.23,2.86a5.7,5.7,0,0,1-2,1.73,4.32,4.32,0,0,1-1.73.46,1.47,1.47,0,0,1-1.59-1.09,8.06,8.06,0,0,1-.32-2.27,72.88,72.88,0,0,1,.55-8q.55-4.78,1.23-9.78T41,104.86q.73-4.45,1.09-7.09a.48.48,0,0,0-.55-.54,1,1,0,0,0-.64.36l-.27.27q-2.64,3.27-4.46,5.82T33.13,108l-2.46,3.55Q27.31,116,24.12,120l-2.82,3.55q-1.46,1.82-2.82,3.59t-2.64,3.37q-1.28,1.59-2.27,2.86a5.87,5.87,0,0,1-2,1.73,4,4,0,0,1-1.68.46,1.51,1.51,0,0,1-1.41-.68,3,3,0,0,1-.41-1.59q0-2,.41-6t1-9q.64-5,1.41-10.14t1.59-9.46q.55-3,1-6.18t.91-6.32q.41-3.14.64-6.09t.32-5.5a20.89,20.89,0,0,0-.14-2.18A5.22,5.22,0,0,0,14.57,70a1.38,1.38,0,0,1-.27-.36,1.6,1.6,0,0,1-.18-.73q0-.82,1.27-1.27.82-.18,1.82-.36T19.35,67a25.24,25.24,0,0,1,2.77-.14q1.73,0,3,.09a5.49,5.49,0,0,1,2,.5,2.42,2.42,0,0,1,1.18,1.32,7.1,7.1,0,0,1,.36,2.55A63.77,63.77,0,0,1,28,78.94q-.64,4.91-1.82,10.55-.64,3.18-1.41,6.73t-1.41,6.87q-.64,3.32-1.09,6a26.26,26.26,0,0,0-.45,4c0,.49.15.73.45.73a2.94,2.94,0,0,0,1.27-.64,9.47,9.47,0,0,0,2.18-2.73q4.37-6.09,8-11.64L36.9,94q1.59-2.41,3-4.68t2.41-4.18a31.24,31.24,0,0,0,1.59-3.27,25.71,25.71,0,0,0,.82-2.55,17.19,17.19,0,0,0,.64-4.82,11.9,11.9,0,0,0-.23-2.32A7.56,7.56,0,0,0,44.31,70a1.37,1.37,0,0,1-.27-.36,1.6,1.6,0,0,1-.18-.73q0-.82,1.27-1.27Q46,67.48,47,67.3T49.14,67A26.49,26.49,0,0,1,52,66.85q1.73,0,3,.09a5,5,0,0,1,2,.55,2.61,2.61,0,0,1,1.18,1.41,7.5,7.5,0,0,1,.36,2.59,30.26,30.26,0,0,1-.27,3.77q-.27,2.14-.68,4.55t-1,4.91q-.55,2.5-1.09,5-.73,3.19-1.46,6.46t-1.27,6.37q-.55,3.09-.91,5.73a33.88,33.88,0,0,0-.36,4.55c0,.67.15,1,.45,1s.62-.24,1.14-.73a19.54,19.54,0,0,0,2.14-2.64q6-8.64,10.82-16.28,2-3.27,4-6.68t3.5-6.5A59.82,59.82,0,0,0,76,75.21a13.55,13.55,0,0,0,1-4.46,4.88,4.88,0,0,0-.27-1,2.41,2.41,0,0,1-.18-.91,1.13,1.13,0,0,1,.36-.82,2.58,2.58,0,0,1,1.55-.46l2.64-.18q1.27-.09,3-.14t3.91,0q3.91,0,8.73.27Q98.07,67.48,98.07,68.39Z" fill="none" stroke="#000" stroke-linecap="round" stroke-linejoin="round" stroke-width="16"/><path d="M96.16,90A13.88,13.88,0,0,1,95,93.4q-1.14,2.73-2.5,5.82-1.64,3.64-3.64,8-1.82,4.46-4,8.82a34.08,34.08,0,0,0-3,8.09l-.36,1.09a7.26,7.26,0,0,0-.27,1.91,7.77,7.77,0,0,1-.18,1.59,1.45,1.45,0,0,1-1.09,1.14,12.61,12.61,0,0,1-2.77.68,23.66,23.66,0,0,1-3.77.32,8.88,8.88,0,0,1-2.68-.36,1.39,1.39,0,0,1-1.14-1.36,1.57,1.57,0,0,1,.09-.64.37.37,0,0,1,.09-.27q.82-2.36,2.46-6.18t3.37-7.55q2-4.37,4.27-9.09.82-1.73,1.68-3.59t1.59-3.64q.73-1.77,1.23-3.32a9,9,0,0,0,.5-2.73,1.57,1.57,0,0,0-.09-.64,1.26,1.26,0,0,1-.09-.55,1.64,1.64,0,0,1,.27-.82,2,2,0,0,1,1.18-.73A20.32,20.32,0,0,1,88.24,89l2-.18q1.09-.09,2.18-.09a11,11,0,0,1,2.64.27Q96.16,89.31,96.16,90Zm6-13.64a6.87,6.87,0,0,1-2.09,5,6.65,6.65,0,0,1-4.91,2.14,4,4,0,0,1-3-1.23,4.31,4.31,0,0,1-1.14-3,5.83,5.83,0,0,1,.64-2.64,8,8,0,0,1,1.64-2.23,8.66,8.66,0,0,1,2.23-1.55,5.72,5.72,0,0,1,2.5-.59,4,4,0,0,1,3,1.18A4.16,4.16,0,0,1,102.16,76.4Z" fill="none" stroke="#000" stroke-linecap="round" stroke-linejoin="round" stroke-width="16"/><path d="M136.63,136.51a2.77,2.77,0,0,1-1.14,2,12.06,12.06,0,0,1-2.91,1.82,20.78,20.78,0,0,1-3.87,1.32,16.59,16.59,0,0,1-9-.27,11.76,11.76,0,0,1-4.18-2.32,10.83,10.83,0,0,1-2.77-3.77,12.43,12.43,0,0,1-1-5.14,19.53,19.53,0,0,1,1.09-5.91q1.09-3.36,2.55-6.82t3-6.59q1.5-3.14,2.41-5.32l.91-2q.36-.82.77-1.82t.68-1.82a3,3,0,0,0,.18-1.09q0-.91-.82-.91a8.28,8.28,0,0,0-1.46.45,1.37,1.37,0,0,0-.55.46q-3.18,3-6.14,6.37t-5.55,6.73q-2.59,3.37-4.64,6.37t-3.41,5.28q-.46.82-.91,1.55c-.3.49-.59,1-.86,1.41s-.53.89-.77,1.32a5.42,5.42,0,0,1-3.09,2.55,12.44,12.44,0,0,1-4.09.73,9.42,9.42,0,0,1-2.5-.36q-1.32-.36-1.32-1.36a1.59,1.59,0,0,1,.09-.64.38.38,0,0,1,.09-.27q.46-1.18,1.23-3t1.73-4l2-4.55q1-2.36,2.14-4.73,2.46-5.46,5.37-11.64.73-1.55,1.36-3.18.45-1.27.91-2.73a8.52,8.52,0,0,0,.45-2.46q-.09-.45-.14-.64a1.86,1.86,0,0,1,0-.45,2,2,0,0,1,.23-.91,1.76,1.76,0,0,1,1.14-.73,14.79,14.79,0,0,1,2.46-.46,29,29,0,0,1,3.91-.27,12,12,0,0,1,2.5.23q1,.23,1,1a13.15,13.15,0,0,1-1,4.32q-1,2.68-2.41,5.59t-2.82,5.78q-1.41,2.86-2.23,4.77a.26.26,0,0,0-.09.18v.27a.24.24,0,0,0,.27.27.61.61,0,0,0,.45-.18,1.06,1.06,0,0,0,.18-.27q.09-.18,1.41-1.87t3.37-4.18q2-2.5,4.68-5.32t5.41-5.28a36,36,0,0,1,5.46-4,9.75,9.75,0,0,1,4.87-1.59,5.59,5.59,0,0,1,3,.86,3.48,3.48,0,0,1,1.41,3.23,10.21,10.21,0,0,1-.36,2.5,19.12,19.12,0,0,1-1.27,3.32l-2,4.28-2.23,4.82q-.54,1.27-1.91,4.09T125,117.6q-1.41,3.37-2.46,6.73a19.89,19.89,0,0,0-1,5.73,6.75,6.75,0,0,0,2,5.18,8.28,8.28,0,0,0,5.87,1.91,16.06,16.06,0,0,0,2.5-.23,11.21,11.21,0,0,0,3-1,.73.73,0,0,0,.27-.09.64.64,0,0,0,.27,0,.61.61,0,0,1,.27,0,1.5,1.5,0,0,1,.59.14A.57.57,0,0,1,136.63,136.51Z" fill="none" stroke="#000" stroke-linecap="round" stroke-linejoin="round" stroke-width="16"/><path d="M176.38,90.22A29.79,29.79,0,0,1,173.78,96q-2.32,4.41-5.41,11.32-2.09,4.82-3.82,9.19a93.3,93.3,0,0,1-4,8.73q-1.91,4.73-4,9.28-1.82,3.91-4.14,8.19a55.22,55.22,0,0,1-4.87,7.55,42.39,42.39,0,0,1-3.91,4.28,35.43,35.43,0,0,1-4.59,3.73,23.55,23.55,0,0,1-5,2.59,13.75,13.75,0,0,1-4.82,1q-.82,0-.82-.55a2,2,0,0,1,.45-1.09,1.38,1.38,0,0,1,.46-.55,22.7,22.7,0,0,0,5.23-5,78.42,78.42,0,0,0,5.28-7.55q2.59-4.19,5-8.82t4.5-8.91q2-4.27,3.59-7.82t2.37-5.46a1,1,0,0,0,.09-.46.16.16,0,0,0-.18-.18,1.58,1.58,0,0,0-.45.18.69.69,0,0,1-.27.09,69.65,69.65,0,0,1-4.87,6.18,46.46,46.46,0,0,1-5,4.87,24.22,24.22,0,0,1-4.78,3.18,10.21,10.21,0,0,1-4.5,1.14,4.82,4.82,0,0,1-2.68-.68,4.56,4.56,0,0,1-1.59-1.73,7.09,7.09,0,0,1-.73-2.27,15.61,15.61,0,0,1-.18-2.32,27.45,27.45,0,0,1,1.27-8,41.83,41.83,0,0,1,3.5-8.19,49.08,49.08,0,0,1,5.23-7.59,46.39,46.39,0,0,1,6.37-6.32,31.4,31.4,0,0,1,6.91-4.32A16.83,16.83,0,0,1,160.46,88a12.23,12.23,0,0,1,3.27.36,12.36,12.36,0,0,1,2.09.77q.82.41,1.32.73a2.06,2.06,0,0,0,1.14.32h.36a.26.26,0,0,0,.18-.09l2.23-.73a10.47,10.47,0,0,1,3.23-.55,3.15,3.15,0,0,1,1.5.32A1.1,1.1,0,0,1,176.38,90.22ZM164.73,93a1.72,1.72,0,0,0-.5-1.18,2.34,2.34,0,0,0-1.77-.55A7.52,7.52,0,0,0,158.14,93a29.37,29.37,0,0,0-4.68,4.37,57.62,57.62,0,0,0-4.59,6A65.73,65.73,0,0,0,145,110a53.79,53.79,0,0,0-2.73,6.14,14.25,14.25,0,0,0-1,4.59,1.93,1.93,0,0,0,.36,1.36,2.11,2.11,0,0,0,1.46.36q1.18,0,3.27-1.91a46,46,0,0,0,4.5-4.87q2.41-3,4.87-6.55t4.5-6.82q2-3.23,3.32-5.78A10.11,10.11,0,0,0,164.73,93Z" fill="none" stroke="#000" stroke-linecap="round" stroke-linejoin="round" stroke-width="16"/><path d="M209,90.86a5.19,5.19,0,0,1-.59,1.82l-1.32,2.82q-.73,1.55-1.36,3.09a9.15,9.15,0,0,0-.73,2.64,1.47,1.47,0,0,1-.27.91,1.89,1.89,0,0,1-1.82.82c-.12,0-.49,0-1.09-.09a6.82,6.82,0,0,1-1.91-.5,4.79,4.79,0,0,1-1.77-1.27,3.63,3.63,0,0,1-.77-2.5,6.13,6.13,0,0,1,.32-2,13.54,13.54,0,0,1,.73-1.77c.27-.55.51-1,.73-1.5a3,3,0,0,0,.32-1.23.89.89,0,0,0-.86-1,14.06,14.06,0,0,0-2.14-.14,8.7,8.7,0,0,0-2.37.36,6.26,6.26,0,0,0-2.27,1.18,6.82,6.82,0,0,0-1.68,2.09,6.27,6.27,0,0,0-.68,3,7.93,7.93,0,0,0,.73,3,8,8,0,0,0,2.91,3.27,21.81,21.81,0,0,1,5,5.09,11.48,11.48,0,0,1,2.14,6.82,16.16,16.16,0,0,1-.77,4,16.47,16.47,0,0,1-2.87,5.41,17.75,17.75,0,0,1-5.82,4.73,20.34,20.34,0,0,1-9.64,2q-6.64,0-10.14-2.46a7.63,7.63,0,0,1-3.5-6.55,10.42,10.42,0,0,1,1.18-5.18,10.55,10.55,0,0,1,3-3.41,12.12,12.12,0,0,1,4-1.91,16.83,16.83,0,0,1,4.32-.59q1.73,0,1.73,1.18a1.16,1.16,0,0,1-.23.68l-.41.59a2.28,2.28,0,0,1-.55.55,11.13,11.13,0,0,0-4.37,8.46,4.71,4.71,0,0,0,1.68,4,5.6,5.6,0,0,0,3.5,1.32,6.61,6.61,0,0,0,4.18-1.27,9.76,9.76,0,0,0,2.59-3,12.34,12.34,0,0,0,1.32-3.5,14.77,14.77,0,0,0,.36-2.77,7.09,7.09,0,0,0-.59-3,9.63,9.63,0,0,0-1.68-2.46q-1.09-1.18-2.55-2.5T181.92,107a9.76,9.76,0,0,1-2.14-3.23,8.73,8.73,0,0,1-.59-3,9.6,9.6,0,0,1,1.59-5.41,13.51,13.51,0,0,1,4.23-4,22.36,22.36,0,0,1,6-2.55,26.75,26.75,0,0,1,7-.91,25.3,25.3,0,0,1,3.91.27q1.73.27,3,.55,1.45.36,2.55.73Q209,89.86,209,90.86Z" fill="none" stroke="#000" stroke-linecap="round" stroke-linejoin="round" stroke-width="16"/><path d="M98.07,68.39q0,.91-1.64,1.73a23.61,23.61,0,0,0-4.64,3.09,72.39,72.39,0,0,0-5.37,4.87,90.26,90.26,0,0,0-7,8Q74.6,92,71,96.77t-6,8q-2.91,3.91-4.82,6.82Q56.78,116,53.77,120q-1.36,1.73-2.73,3.55t-2.73,3.59l-2.59,3.37-2.23,2.86a5.7,5.7,0,0,1-2,1.73,4.32,4.32,0,0,1-1.73.46,1.47,1.47,0,0,1-1.59-1.09,8.06,8.06,0,0,1-.32-2.27,72.88,72.88,0,0,1,.55-8q.55-4.78,1.23-9.78T41,104.86q.73-4.45,1.09-7.09a.48.48,0,0,0-.55-.54,1,1,0,0,0-.64.36l-.27.27q-2.64,3.27-4.46,5.82T33.13,108l-2.46,3.55Q27.31,116,24.12,120l-2.82,3.55q-1.46,1.82-2.82,3.59t-2.64,3.37q-1.28,1.59-2.27,2.86a5.87,5.87,0,0,1-2,1.73,4,4,0,0,1-1.68.46,1.51,1.51,0,0,1-1.41-.68,3,3,0,0,1-.41-1.59q0-2,.41-6t1-9q.64-5,1.41-10.14t1.59-9.46q.55-3,1-6.18t.91-6.32q.41-3.14.64-6.09t.32-5.5a20.89,20.89,0,0,0-.14-2.18A5.22,5.22,0,0,0,14.57,70a1.38,1.38,0,0,1-.27-.36,1.6,1.6,0,0,1-.18-.73q0-.82,1.27-1.27.82-.18,1.82-.36T19.35,67a25.24,25.24,0,0,1,2.77-.14q1.73,0,3,.09a5.49,5.49,0,0,1,2,.5,2.42,2.42,0,0,1,1.18,1.32,7.1,7.1,0,0,1,.36,2.55A63.77,63.77,0,0,1,28,78.94q-.64,4.91-1.82,10.55-.64,3.18-1.41,6.73t-1.41,6.87q-.64,3.32-1.09,6a26.26,26.26,0,0,0-.45,4c0,.49.15.73.45.73a2.94,2.94,0,0,0,1.27-.64,9.47,9.47,0,0,0,2.18-2.73q4.37-6.09,8-11.64L36.9,94q1.59-2.41,3-4.68t2.41-4.18a31.24,31.24,0,0,0,1.59-3.27,25.71,25.71,0,0,0,.82-2.55,17.19,17.19,0,0,0,.64-4.82,11.9,11.9,0,0,0-.23-2.32A7.56,7.56,0,0,0,44.31,70a1.37,1.37,0,0,1-.27-.36,1.6,1.6,0,0,1-.18-.73q0-.82,1.27-1.27Q46,67.48,47,67.3T49.14,67A26.49,26.49,0,0,1,52,66.85q1.73,0,3,.09a5,5,0,0,1,2,.55,2.61,2.61,0,0,1,1.18,1.41,7.5,7.5,0,0,1,.36,2.59,30.26,30.26,0,0,1-.27,3.77q-.27,2.14-.68,4.55t-1,4.91q-.55,2.5-1.09,5-.73,3.19-1.46,6.46t-1.27,6.37q-.55,3.09-.91,5.73a33.88,33.88,0,0,0-.36,4.55c0,.67.15,1,.45,1s.62-.24,1.14-.73a19.54,19.54,0,0,0,2.14-2.64q6-8.64,10.82-16.28,2-3.27,4-6.68t3.5-6.5A59.82,59.82,0,0,0,76,75.21a13.55,13.55,0,0,0,1-4.46,4.88,4.88,0,0,0-.27-1,2.41,2.41,0,0,1-.18-.91,1.13,1.13,0,0,1,.36-.82,2.58,2.58,0,0,1,1.55-.46l2.64-.18q1.27-.09,3-.14t3.91,0q3.91,0,8.73.27Q98.07,67.48,98.07,68.39Z"/><path d="M96.16,90A13.88,13.88,0,0,1,95,93.4q-1.14,2.73-2.5,5.82-1.64,3.64-3.64,8-1.82,4.46-4,8.82a34.08,34.08,0,0,0-3,8.09l-.36,1.09a7.26,7.26,0,0,0-.27,1.91,7.77,7.77,0,0,1-.18,1.59,1.45,1.45,0,0,1-1.09,1.14,12.61,12.61,0,0,1-2.77.68,23.66,23.66,0,0,1-3.77.32,8.88,8.88,0,0,1-2.68-.36,1.39,1.39,0,0,1-1.14-1.36,1.57,1.57,0,0,1,.09-.64.37.37,0,0,1,.09-.27q.82-2.36,2.46-6.18t3.37-7.55q2-4.37,4.27-9.09.82-1.73,1.68-3.59t1.59-3.64q.73-1.77,1.23-3.32a9,9,0,0,0,.5-2.73,1.57,1.57,0,0,0-.09-.64,1.26,1.26,0,0,1-.09-.55,1.64,1.64,0,0,1,.27-.82,2,2,0,0,1,1.18-.73A20.32,20.32,0,0,1,88.24,89l2-.18q1.09-.09,2.18-.09a11,11,0,0,1,2.64.27Q96.16,89.31,96.16,90Zm6-13.64a6.87,6.87,0,0,1-2.09,5,6.65,6.65,0,0,1-4.91,2.14,4,4,0,0,1-3-1.23,4.31,4.31,0,0,1-1.14-3,5.83,5.83,0,0,1,.64-2.64,8,8,0,0,1,1.64-2.23,8.66,8.66,0,0,1,2.23-1.55,5.72,5.72,0,0,1,2.5-.59,4,4,0,0,1,3,1.18A4.16,4.16,0,0,1,102.16,76.4Z"/><path d="M136.63,136.51a2.77,2.77,0,0,1-1.14,2,12.06,12.06,0,0,1-2.91,1.82,20.78,20.78,0,0,1-3.87,1.32,16.59,16.59,0,0,1-9-.27,11.76,11.76,0,0,1-4.18-2.32,10.83,10.83,0,0,1-2.77-3.77,12.43,12.43,0,0,1-1-5.14,19.53,19.53,0,0,1,1.09-5.91q1.09-3.36,2.55-6.82t3-6.59q1.5-3.14,2.41-5.32l.91-2q.36-.82.77-1.82t.68-1.82a3,3,0,0,0,.18-1.09q0-.91-.82-.91a8.28,8.28,0,0,0-1.46.45,1.37,1.37,0,0,0-.55.46q-3.18,3-6.14,6.37t-5.55,6.73q-2.59,3.37-4.64,6.37t-3.41,5.28q-.46.82-.91,1.55c-.3.49-.59,1-.86,1.41s-.53.89-.77,1.32a5.42,5.42,0,0,1-3.09,2.55,12.44,12.44,0,0,1-4.09.73,9.42,9.42,0,0,1-2.5-.36q-1.32-.36-1.32-1.36a1.59,1.59,0,0,1,.09-.64.38.38,0,0,1,.09-.27q.46-1.18,1.23-3t1.73-4l2-4.55q1-2.36,2.14-4.73,2.46-5.46,5.37-11.64.73-1.55,1.36-3.18.45-1.27.91-2.73a8.52,8.52,0,0,0,.45-2.46q-.09-.45-.14-.64a1.86,1.86,0,0,1,0-.45,2,2,0,0,1,.23-.91,1.76,1.76,0,0,1,1.14-.73,14.79,14.79,0,0,1,2.46-.46,29,29,0,0,1,3.91-.27,12,12,0,0,1,2.5.23q1,.23,1,1a13.15,13.15,0,0,1-1,4.32q-1,2.68-2.41,5.59t-2.82,5.78q-1.41,2.86-2.23,4.77a.26.26,0,0,0-.09.18v.27a.24.24,0,0,0,.27.27.61.61,0,0,0,.45-.18,1.06,1.06,0,0,0,.18-.27q.09-.18,1.41-1.87t3.37-4.18q2-2.5,4.68-5.32t5.41-5.28a36,36,0,0,1,5.46-4,9.75,9.75,0,0,1,4.87-1.59,5.59,5.59,0,0,1,3,.86,3.48,3.48,0,0,1,1.41,3.23,10.21,10.21,0,0,1-.36,2.5,19.12,19.12,0,0,1-1.27,3.32l-2,4.28-2.23,4.82q-.54,1.27-1.91,4.09T125,117.6q-1.41,3.37-2.46,6.73a19.89,19.89,0,0,0-1,5.73,6.75,6.75,0,0,0,2,5.18,8.28,8.28,0,0,0,5.87,1.91,16.06,16.06,0,0,0,2.5-.23,11.21,11.21,0,0,0,3-1,.73.73,0,0,0,.27-.09.64.64,0,0,0,.27,0,.61.61,0,0,1,.27,0,1.5,1.5,0,0,1,.59.14A.57.57,0,0,1,136.63,136.51Z"/><path d="M176.38,90.22A29.79,29.79,0,0,1,173.78,96q-2.32,4.41-5.41,11.32-2.09,4.82-3.82,9.19a93.3,93.3,0,0,1-4,8.73q-1.91,4.73-4,9.28-1.82,3.91-4.14,8.19a55.22,55.22,0,0,1-4.87,7.55,42.39,42.39,0,0,1-3.91,4.28,35.43,35.43,0,0,1-4.59,3.73,23.55,23.55,0,0,1-5,2.59,13.75,13.75,0,0,1-4.82,1q-.82,0-.82-.55a2,2,0,0,1,.45-1.09,1.38,1.38,0,0,1,.46-.55,22.7,22.7,0,0,0,5.23-5,78.42,78.42,0,0,0,5.28-7.55q2.59-4.19,5-8.82t4.5-8.91q2-4.27,3.59-7.82t2.37-5.46a1,1,0,0,0,.09-.46.16.16,0,0,0-.18-.18,1.58,1.58,0,0,0-.45.18.69.69,0,0,1-.27.09,69.65,69.65,0,0,1-4.87,6.18,46.46,46.46,0,0,1-5,4.87,24.22,24.22,0,0,1-4.78,3.18,10.21,10.21,0,0,1-4.5,1.14,4.82,4.82,0,0,1-2.68-.68,4.56,4.56,0,0,1-1.59-1.73,7.09,7.09,0,0,1-.73-2.27,15.61,15.61,0,0,1-.18-2.32,27.45,27.45,0,0,1,1.27-8,41.83,41.83,0,0,1,3.5-8.19,49.08,49.08,0,0,1,5.23-7.59,46.39,46.39,0,0,1,6.37-6.32,31.4,31.4,0,0,1,6.91-4.32A16.83,16.83,0,0,1,160.46,88a12.23,12.23,0,0,1,3.27.36,12.36,12.36,0,0,1,2.09.77q.82.41,1.32.73a2.06,2.06,0,0,0,1.14.32h.36a.26.26,0,0,0,.18-.09l2.23-.73a10.47,10.47,0,0,1,3.23-.55,3.15,3.15,0,0,1,1.5.32A1.1,1.1,0,0,1,176.38,90.22ZM164.73,93a1.72,1.72,0,0,0-.5-1.18,2.34,2.34,0,0,0-1.77-.55A7.52,7.52,0,0,0,158.14,93a29.37,29.37,0,0,0-4.68,4.37,57.62,57.62,0,0,0-4.59,6A65.73,65.73,0,0,0,145,110a53.79,53.79,0,0,0-2.73,6.14,14.25,14.25,0,0,0-1,4.59,1.93,1.93,0,0,0,.36,1.36,2.11,2.11,0,0,0,1.46.36q1.18,0,3.27-1.91a46,46,0,0,0,4.5-4.87q2.41-3,4.87-6.55t4.5-6.82q2-3.23,3.32-5.78A10.11,10.11,0,0,0,164.73,93Z"/><path d="M209,90.86a5.19,5.19,0,0,1-.59,1.82l-1.32,2.82q-.73,1.55-1.36,3.09a9.15,9.15,0,0,0-.73,2.64,1.47,1.47,0,0,1-.27.91,1.89,1.89,0,0,1-1.82.82c-.12,0-.49,0-1.09-.09a6.82,6.82,0,0,1-1.91-.5,4.79,4.79,0,0,1-1.77-1.27,3.63,3.63,0,0,1-.77-2.5,6.13,6.13,0,0,1,.32-2,13.54,13.54,0,0,1,.73-1.77c.27-.55.51-1,.73-1.5a3,3,0,0,0,.32-1.23.89.89,0,0,0-.86-1,14.06,14.06,0,0,0-2.14-.14,8.7,8.7,0,0,0-2.37.36,6.26,6.26,0,0,0-2.27,1.18,6.82,6.82,0,0,0-1.68,2.09,6.27,6.27,0,0,0-.68,3,7.93,7.93,0,0,0,.73,3,8,8,0,0,0,2.91,3.27,21.81,21.81,0,0,1,5,5.09,11.48,11.48,0,0,1,2.14,6.82,16.16,16.16,0,0,1-.77,4,16.47,16.47,0,0,1-2.87,5.41,17.75,17.75,0,0,1-5.82,4.73,20.34,20.34,0,0,1-9.64,2q-6.64,0-10.14-2.46a7.63,7.63,0,0,1-3.5-6.55,10.42,10.42,0,0,1,1.18-5.18,10.55,10.55,0,0,1,3-3.41,12.12,12.12,0,0,1,4-1.91,16.83,16.83,0,0,1,4.32-.59q1.73,0,1.73,1.18a1.16,1.16,0,0,1-.23.68l-.41.59a2.28,2.28,0,0,1-.55.55,11.13,11.13,0,0,0-4.37,8.46,4.71,4.71,0,0,0,1.68,4,5.6,5.6,0,0,0,3.5,1.32,6.61,6.61,0,0,0,4.18-1.27,9.76,9.76,0,0,0,2.59-3,12.34,12.34,0,0,0,1.32-3.5,14.77,14.77,0,0,0,.36-2.77,7.09,7.09,0,0,0-.59-3,9.63,9.63,0,0,0-1.68-2.46q-1.09-1.18-2.55-2.5T181.92,107a9.76,9.76,0,0,1-2.14-3.23,8.73,8.73,0,0,1-.59-3,9.6,9.6,0,0,1,1.59-5.41,13.51,13.51,0,0,1,4.23-4,22.36,22.36,0,0,1,6-2.55,26.75,26.75,0,0,1,7-.91,25.3,25.3,0,0,1,3.91.27q1.73.27,3,.55,1.45.36,2.55.73Q209,89.86,209,90.86Z"/><path d="M215.84,80a6.66,6.66,0,1,1-6.66,6.66A6.66,6.66,0,0,1,215.84,80Z" fill-rule="evenodd"/><path d="M215.85,82.35a4.44,4.44,0,0,1,2.2.53,3.74,3.74,0,0,1,1.49,1.5,5,5,0,0,1,0,4.46,3.85,3.85,0,0,1-1.49,1.53,4.68,4.68,0,0,1-4.4,0,3.88,3.88,0,0,1-1.5-1.53,4.54,4.54,0,0,1-.54-2.22,4.6,4.6,0,0,1,.53-2.24,3.72,3.72,0,0,1,1.5-1.5,4.51,4.51,0,0,1,2.21-.53Zm0,8.09a4,4,0,0,0,2-.48,3.25,3.25,0,0,0,1.32-1.34,4.2,4.2,0,0,0,.46-2,4.28,4.28,0,0,0-.46-2,3.24,3.24,0,0,0-1.32-1.35,4.43,4.43,0,0,0-4,0,3.24,3.24,0,0,0-1.32,1.35,4.28,4.28,0,0,0-.46,2,4.19,4.19,0,0,0,.46,2A3.25,3.25,0,0,0,213.85,90a4.06,4.06,0,0,0,2,.48Zm2.1-5.11a1.43,1.43,0,0,1-.38,1,1.77,1.77,0,0,1-1.12.48L218,89.16h-.81l-1.47-2.3h-.77v2.3h-.72V83.81h1.9a2,2,0,0,1,1.4.42,1.41,1.41,0,0,1,.47,1.11Zm-3,1H216q1.17,0,1.17-1a.88.88,0,0,0-.27-.71,1.37,1.37,0,0,0-.9-.24h-1.11v1.9Z" fill="#fc0" stroke="#fc0" stroke-linecap="round" stroke-linejoin="round" stroke-width="0.5"/><path d="M81.62,11.47q-.05.48-.21,1.56T81,15.51q-.21,1.4-.53,3t-.69,3-.32,1.35Q79.24,24,78.84,26T78,30.4q-.45,2.4-.82,4.75t-.63,4.44A28.11,28.11,0,0,0,76.28,43a13.37,13.37,0,0,0,.05,1.35,3.87,3.87,0,0,0,.16.82,3.38,3.38,0,0,0,.21.58,1.28,1.28,0,0,1,.32.63,1.18,1.18,0,0,1-.79,1,7.49,7.49,0,0,1-1.77.61,15.4,15.4,0,0,1-1.85.29l-1,.08a3.41,3.41,0,0,1-2.19-.48,2.28,2.28,0,0,1-.5-1.69,16.36,16.36,0,0,1,.13-1.9q.13-1.11.34-2.4t.48-2.69q.26-1.4.58-2.72.69-3.12,1.58-6.55a.31.31,0,0,0,.05-.21.34.34,0,0,0-.21-.32l-.21-.11q-1.11-.1-2.61-.13l-3.14,0a.78.78,0,0,0-.58.21.81.81,0,0,0-.16.21q-2.06,3.33-4.07,6.31T57.38,41.2Q55.63,43.52,54.26,45A9.62,9.62,0,0,1,52.09,47a7.72,7.72,0,0,1-1.72.66A16.74,16.74,0,0,1,48.5,48q-1,.13-1.82.19t-1.51.05q-.63,0-1.24-.05c-.4,0-.61-.19-.61-.48a.76.76,0,0,1,.26-.53.84.84,0,0,1,.32-.21,28,28,0,0,0,4.28-3q2.22-1.87,4.49-4.17t4.49-4.91q2.22-2.61,4.22-5.2v-.05a.11.11,0,0,1,0-.08.11.11,0,0,0,0-.08c0-.11-.09-.16-.26-.16q-2.32,0-3.46.08t-1.56.08q-.32,0-.4-.16a.7.7,0,0,1-.08-.32,1.24,1.24,0,0,1,.45-.82,4.82,4.82,0,0,1,1.14-.82,7.15,7.15,0,0,1,1.43-.58A4.89,4.89,0,0,1,60,26.52l1.06,0q.53,0,1.16,0H63.4a.57.57,0,0,0,.42-.16A.83.83,0,0,0,64,26.2q1.32-1.74,2.77-3.75t2.72-4a35.23,35.23,0,0,0,2.14-3.93,11.15,11.15,0,0,0,1-3.38q0-.63,1.35-1.16a12.33,12.33,0,0,1,4.2-.53,5.58,5.58,0,0,1,2.8.45A1.84,1.84,0,0,1,81.62,11.47Zm-7.08,5.07c0-.25-.07-.37-.21-.37a.85.85,0,0,0-.37.11.62.62,0,0,0-.16.11l-2,2.85q-.9,1.32-2.09,3.12T67.3,26.2a0,0,0,0,0-.05.05v.16q0,.16.21.16l1.87,0,1.51,0h1.37a.48.48,0,0,0,.42-.26A.66.66,0,0,0,72.8,26q.58-2.38.92-4.12t.55-3Q74.49,17.54,74.54,16.54Z" fill="none" stroke="#c77709" stroke-linecap="round" stroke-linejoin="round" stroke-width="3.54"/><path d="M107.18,51.08a1.61,1.61,0,0,1-.66,1.16,7,7,0,0,1-1.69,1.06,12,12,0,0,1-2.24.77,9.63,9.63,0,0,1-5.25-.16,6.83,6.83,0,0,1-2.43-1.35,6.28,6.28,0,0,1-1.61-2.19,7.21,7.21,0,0,1-.58-3,11.33,11.33,0,0,1,.63-3.43q.63-2,1.48-4t1.72-3.83q.87-1.82,1.4-3.09l.53-1.16q.21-.48.45-1.06t.4-1.06a1.71,1.71,0,0,0,.11-.63c0-.35-.16-.53-.48-.53a4.84,4.84,0,0,0-.84.26.8.8,0,0,0-.32.26q-1.85,1.74-3.56,3.7T91,36.76q-1.51,2-2.69,3.7t-2,3.06q-.27.48-.53.9l-.5.82-.45.77A3.15,3.15,0,0,1,83,47.48a7.22,7.22,0,0,1-2.38.42,5.49,5.49,0,0,1-1.45-.21q-.76-.21-.77-.79a.92.92,0,0,1,.05-.37.22.22,0,0,1,.05-.16q.27-.69.71-1.74t1-2.32l1.16-2.64q.61-1.37,1.24-2.75,1.43-3.17,3.12-6.76.42-.9.79-1.85.26-.74.53-1.58a5,5,0,0,0,.26-1.43l-.08-.37a1.09,1.09,0,0,1,0-.26,1.17,1.17,0,0,1,.13-.53,1,1,0,0,1,.66-.42,8.59,8.59,0,0,1,1.43-.26,16.83,16.83,0,0,1,2.27-.16,7,7,0,0,1,1.45.13c.4.09.61.27.61.55a7.63,7.63,0,0,1-.58,2.51q-.58,1.56-1.4,3.25L90.2,33.09q-.82,1.66-1.29,2.77a.15.15,0,0,0-.05.11v.16a.14.14,0,0,0,.16.16.36.36,0,0,0,.26-.11.62.62,0,0,0,.11-.16q.05-.1.82-1.08t2-2.43q1.19-1.45,2.72-3.09T98,26.36A20.93,20.93,0,0,1,101.18,24a5.66,5.66,0,0,1,2.83-.92,3.24,3.24,0,0,1,1.72.5,2,2,0,0,1,.82,1.87,5.93,5.93,0,0,1-.21,1.45,11.08,11.08,0,0,1-.74,1.93l-1.14,2.48-1.29,2.8q-.32.74-1.11,2.38t-1.61,3.59Q99.62,42,99,44a11.54,11.54,0,0,0-.61,3.33,3.92,3.92,0,0,0,1.19,3A4.81,4.81,0,0,0,103,51.44a9.32,9.32,0,0,0,1.45-.13,6.51,6.51,0,0,0,1.72-.55.42.42,0,0,0,.16-.05.37.37,0,0,0,.16,0,.36.36,0,0,1,.16,0,.88.88,0,0,1,.34.08A.33.33,0,0,1,107.18,51.08Z" fill="none" stroke="#c77709" stroke-linecap="round" stroke-linejoin="round" stroke-width="3.54"/><path d="M130.25,24.19a17.32,17.32,0,0,1-1.51,3.35q-1.35,2.56-3.14,6.58-1.22,2.8-2.22,5.33a54.09,54.09,0,0,1-2.32,5.07q-1.11,2.75-2.32,5.39-1.06,2.27-2.4,4.75A32,32,0,0,1,113.51,59a24.6,24.6,0,0,1-2.27,2.48,20.54,20.54,0,0,1-2.67,2.17,13.66,13.66,0,0,1-2.88,1.5,8,8,0,0,1-2.8.55q-.48,0-.48-.32a1.16,1.16,0,0,1,.26-.63.8.8,0,0,1,.26-.32,13.18,13.18,0,0,0,3-2.9,45.5,45.5,0,0,0,3.06-4.38q1.51-2.43,2.93-5.12t2.61-5.18q1.19-2.48,2.09-4.54l1.37-3.17a.6.6,0,0,0,.05-.26.09.09,0,0,0-.11-.11.92.92,0,0,0-.26.11.41.41,0,0,1-.16.05,40.54,40.54,0,0,1-2.83,3.59,27,27,0,0,1-2.88,2.83,14,14,0,0,1-2.77,1.85,5.93,5.93,0,0,1-2.61.66,2.8,2.8,0,0,1-1.56-.4,2.64,2.64,0,0,1-.92-1,4.12,4.12,0,0,1-.42-1.32,9.09,9.09,0,0,1-.11-1.35,15.94,15.94,0,0,1,.74-4.65,24.29,24.29,0,0,1,2-4.75,28.5,28.5,0,0,1,3-4.41,26.94,26.94,0,0,1,3.7-3.67,18.28,18.28,0,0,1,4-2.51,9.78,9.78,0,0,1,4-.92,7.12,7.12,0,0,1,1.9.21,7.21,7.21,0,0,1,1.21.45q.47.24.77.42a1.2,1.2,0,0,0,.66.18h.21a.15.15,0,0,0,.11-.05l1.29-.42A6.06,6.06,0,0,1,129,23.4a1.83,1.83,0,0,1,.87.19A.64.64,0,0,1,130.25,24.19Zm-6.76,1.64a1,1,0,0,0-.29-.69,1.36,1.36,0,0,0-1-.32,4.36,4.36,0,0,0-2.51,1,17,17,0,0,0-2.72,2.54,33.41,33.41,0,0,0-2.67,3.49A38,38,0,0,0,112,35.65a31.2,31.2,0,0,0-1.58,3.56,8.28,8.28,0,0,0-.61,2.67,1.12,1.12,0,0,0,.21.79,1.22,1.22,0,0,0,.84.21,3.42,3.42,0,0,0,1.9-1.11A26.7,26.7,0,0,0,115.39,39q1.4-1.72,2.83-3.8t2.61-4q1.19-1.87,1.93-3.35A5.87,5.87,0,0,0,123.49,25.83Z" fill="none" stroke="#c77709" stroke-linecap="round" stroke-linejoin="round" stroke-width="3.54"/><path d="M152.06,23.93a6,6,0,0,1-.63,1.53q-.63,1.27-1.48,2.9t-1.61,3.33a13.07,13.07,0,0,0-1,2.8,1.31,1.31,0,0,1-.11.58.75.75,0,0,1-.74.53l-.63-.08a4,4,0,0,1-1.13-.37,3.4,3.4,0,0,1-1.11-.87,2.34,2.34,0,0,1-.5-1.58,5.17,5.17,0,0,1,.19-1.29,6.42,6.42,0,0,1,.71-1.61,1.22,1.22,0,0,0,.16-.48.19.19,0,0,0-.21-.21.88.88,0,0,0-.26.05l-.26.11-.26.16a21.62,21.62,0,0,0-3.12,3.12q-1.64,2-3.12,4t-2.67,4a32.38,32.38,0,0,0-1.72,3q-.21.48-.42.9t-.42.82l-.42.77q-1,1.85-4.28,1.85h-.5a2.6,2.6,0,0,1-.5-.05,1.19,1.19,0,0,1-.9-.34,1,1,0,0,1-.21-.55.91.91,0,0,1,.05-.37.21.21,0,0,1,.05-.16q.69-2,1.64-4.07l1.9-4.2q1-2.09,1.9-4.09t1.69-3.7q.74-1.69,1.19-3a6.69,6.69,0,0,0,.45-2,.91.91,0,0,0-.05-.37.74.74,0,0,1-.05-.32.94.94,0,0,1,.16-.48,1.15,1.15,0,0,1,.69-.42,11.94,11.94,0,0,1,1.27-.21L137,23.4q.63-.05,1.27-.05a6.4,6.4,0,0,1,1.53.16q.63.16.63.58a7.09,7.09,0,0,1-.63,2.14q-.63,1.56-1.37,3.25-.9,2-2,4.22a.15.15,0,0,0-.05.11V34a.14.14,0,0,0,.16.16.36.36,0,0,0,.26-.11.62.62,0,0,0,.11-.16q.26-.32,1-1.27t1.77-2.14q1.06-1.19,2.4-2.48a29.48,29.48,0,0,1,2.8-2.38,15.84,15.84,0,0,1,3-1.77,7.33,7.33,0,0,1,3-.69,2,2,0,0,1,.92.19A.64.64,0,0,1,152.06,23.93Z" fill="none" stroke="#c77709" stroke-linecap="round" stroke-linejoin="round" stroke-width="3.54"/><path d="M173.82,24a1.59,1.59,0,0,1-.16.53l-1,2q-.66,1.29-1.45,2.9t-1.61,3.43q-.82,1.82-1.51,3.56l-3.22,8q-1.06,2.8-2.27,5.44-1.06,2.27-2.32,4.75a28.46,28.46,0,0,1-2.59,4.23,16.68,16.68,0,0,1-2.54,2.69,19.89,19.89,0,0,1-2.93,2.09,16.31,16.31,0,0,1-2.9,1.35,7.8,7.8,0,0,1-2.46.48c-.32,0-.48-.12-.48-.37s.19-.55.58-.9a10.28,10.28,0,0,0,2.06-1.8,27.75,27.75,0,0,0,2.09-2.61q1-1.45,2-3.09t1.9-3.27q2.11-3.8,4.07-8.24.16-.37.66-1.37t1-2.14q.5-1.14.9-2.09a4.36,4.36,0,0,0,.4-1.27c0-.14-.05-.21-.16-.21a.43.43,0,0,0-.26.16.62.62,0,0,1-.11.16s-.23.29-.58.77-.82,1.06-1.4,1.77-1.27,1.46-2.06,2.27A26.86,26.86,0,0,1,155,45.5a14.77,14.77,0,0,1-2.69,1.72,6.07,6.07,0,0,1-2.67.69,3.56,3.56,0,0,1-1-.13,2.34,2.34,0,0,1-1.53-1.32,3.24,3.24,0,0,1-.26-1.4,9.83,9.83,0,0,1,1-4.2q1-2.14,2-4.3.74-1.74,1.53-3.27t1.45-3a22.37,22.37,0,0,0,1.08-2.8,9.3,9.3,0,0,0,.42-2.75,1.72,1.72,0,0,1,.13-.71q.13-.29.71-.4.74-.16,1.64-.32a10.31,10.31,0,0,1,1.79-.16,4,4,0,0,1,1.53.26.92.92,0,0,1,.63.9,1.6,1.6,0,0,1-.05.37l-.11.42a2.09,2.09,0,0,0-.16.42,34.42,34.42,0,0,1-1.32,3.54q-.9,2.11-1.85,4.07-1.11,2.32-2.38,4.75-.42,1.06-.71,1.72a12.28,12.28,0,0,0-.5,1.35,3.92,3.92,0,0,0-.21,1.06q0,1,.74,1a2.6,2.6,0,0,0,.79-.26,3.31,3.31,0,0,0,.37-.21,27,27,0,0,0,3.72-3.85,59.09,59.09,0,0,0,3.51-4.83q1.64-2.51,3-4.91t2.14-4.15a1.85,1.85,0,0,1,.37-.58,4,4,0,0,1,.42-.37,1.87,1.87,0,0,1,.53-.26,9.41,9.41,0,0,1,1.64-.34,11.48,11.48,0,0,1,1.16-.08,4.62,4.62,0,0,1,1.35.19Q173.82,23.56,173.82,24Z" fill="none" stroke="#c77709" stroke-linecap="round" stroke-linejoin="round" stroke-width="3.54"/><path d="M81.62,11.47q-.05.48-.21,1.56T81,15.51q-.21,1.4-.53,3t-.69,3-.32,1.35Q79.24,24,78.84,26T78,30.4q-.45,2.4-.82,4.75t-.63,4.44A28.11,28.11,0,0,0,76.28,43a13.37,13.37,0,0,0,.05,1.35,3.87,3.87,0,0,0,.16.82,3.38,3.38,0,0,0,.21.58,1.28,1.28,0,0,1,.32.63,1.18,1.18,0,0,1-.79,1,7.49,7.49,0,0,1-1.77.61,15.4,15.4,0,0,1-1.85.29l-1,.08a3.41,3.41,0,0,1-2.19-.48,2.28,2.28,0,0,1-.5-1.69,16.36,16.36,0,0,1,.13-1.9q.13-1.11.34-2.4t.48-2.69q.26-1.4.58-2.72.69-3.12,1.58-6.55a.31.31,0,0,0,.05-.21.34.34,0,0,0-.21-.32l-.21-.11q-1.11-.1-2.61-.13l-3.14,0a.78.78,0,0,0-.58.21.81.81,0,0,0-.16.21q-2.06,3.33-4.07,6.31T57.38,41.2Q55.63,43.52,54.26,45A9.62,9.62,0,0,1,52.09,47a7.72,7.72,0,0,1-1.72.66A16.74,16.74,0,0,1,48.5,48q-1,.13-1.82.19t-1.51.05q-.63,0-1.24-.05c-.4,0-.61-.19-.61-.48a.76.76,0,0,1,.26-.53.84.84,0,0,1,.32-.21,28,28,0,0,0,4.28-3q2.22-1.87,4.49-4.17t4.49-4.91q2.22-2.61,4.22-5.2v-.05a.11.11,0,0,1,0-.08.11.11,0,0,0,0-.08c0-.11-.09-.16-.26-.16q-2.32,0-3.46.08t-1.56.08q-.32,0-.4-.16a.7.7,0,0,1-.08-.32,1.24,1.24,0,0,1,.45-.82,4.82,4.82,0,0,1,1.14-.82,7.15,7.15,0,0,1,1.43-.58A4.89,4.89,0,0,1,60,26.52l1.06,0q.53,0,1.16,0H63.4a.57.57,0,0,0,.42-.16A.83.83,0,0,0,64,26.2q1.32-1.74,2.77-3.75t2.72-4a35.23,35.23,0,0,0,2.14-3.93,11.15,11.15,0,0,0,1-3.38q0-.63,1.35-1.16a12.33,12.33,0,0,1,4.2-.53,5.58,5.58,0,0,1,2.8.45A1.84,1.84,0,0,1,81.62,11.47Zm-7.08,5.07c0-.25-.07-.37-.21-.37a.85.85,0,0,0-.37.11.62.62,0,0,0-.16.11l-2,2.85q-.9,1.32-2.09,3.12T67.3,26.2a0,0,0,0,0-.05.05v.16q0,.16.21.16l1.87,0,1.51,0h1.37a.48.48,0,0,0,.42-.26A.66.66,0,0,0,72.8,26q.58-2.38.92-4.12t.55-3Q74.49,17.54,74.54,16.54Z" fill="#ffc933"/><path d="M107.18,51.08a1.61,1.61,0,0,1-.66,1.16,7,7,0,0,1-1.69,1.06,12,12,0,0,1-2.24.77,9.63,9.63,0,0,1-5.25-.16,6.83,6.83,0,0,1-2.43-1.35,6.28,6.28,0,0,1-1.61-2.19,7.21,7.21,0,0,1-.58-3,11.33,11.33,0,0,1,.63-3.43q.63-2,1.48-4t1.72-3.83q.87-1.82,1.4-3.09l.53-1.16q.21-.48.45-1.06t.4-1.06a1.71,1.71,0,0,0,.11-.63c0-.35-.16-.53-.48-.53a4.84,4.84,0,0,0-.84.26.8.8,0,0,0-.32.26q-1.85,1.74-3.56,3.7T91,36.76q-1.51,2-2.69,3.7t-2,3.06q-.27.48-.53.9l-.5.82-.45.77A3.15,3.15,0,0,1,83,47.48a7.22,7.22,0,0,1-2.38.42,5.49,5.49,0,0,1-1.45-.21q-.76-.21-.77-.79a.92.92,0,0,1,.05-.37.22.22,0,0,1,.05-.16q.27-.69.71-1.74t1-2.32l1.16-2.64q.61-1.37,1.24-2.75,1.43-3.17,3.12-6.76.42-.9.79-1.85.26-.74.53-1.58a5,5,0,0,0,.26-1.43l-.08-.37a1.09,1.09,0,0,1,0-.26,1.17,1.17,0,0,1,.13-.53,1,1,0,0,1,.66-.42,8.59,8.59,0,0,1,1.43-.26,16.83,16.83,0,0,1,2.27-.16,7,7,0,0,1,1.45.13c.4.09.61.27.61.55a7.63,7.63,0,0,1-.58,2.51q-.58,1.56-1.4,3.25L90.2,33.09q-.82,1.66-1.29,2.77a.15.15,0,0,0-.05.11v.16a.14.14,0,0,0,.16.16.36.36,0,0,0,.26-.11.62.62,0,0,0,.11-.16q.05-.1.82-1.08t2-2.43q1.19-1.45,2.72-3.09T98,26.36A20.93,20.93,0,0,1,101.18,24a5.66,5.66,0,0,1,2.83-.92,3.24,3.24,0,0,1,1.72.5,2,2,0,0,1,.82,1.87,5.93,5.93,0,0,1-.21,1.45,11.08,11.08,0,0,1-.74,1.93l-1.14,2.48-1.29,2.8q-.32.74-1.11,2.38t-1.61,3.59Q99.62,42,99,44a11.54,11.54,0,0,0-.61,3.33,3.92,3.92,0,0,0,1.19,3A4.81,4.81,0,0,0,103,51.44a9.32,9.32,0,0,0,1.45-.13,6.51,6.51,0,0,0,1.72-.55.42.42,0,0,0,.16-.05.37.37,0,0,0,.16,0,.36.36,0,0,1,.16,0,.88.88,0,0,1,.34.08A.33.33,0,0,1,107.18,51.08Z" fill="#ffc933"/><path d="M130.25,24.19a17.32,17.32,0,0,1-1.51,3.35q-1.35,2.56-3.14,6.58-1.22,2.8-2.22,5.33a54.09,54.09,0,0,1-2.32,5.07q-1.11,2.75-2.32,5.39-1.06,2.27-2.4,4.75A32,32,0,0,1,113.51,59a24.6,24.6,0,0,1-2.27,2.48,20.54,20.54,0,0,1-2.67,2.17,13.66,13.66,0,0,1-2.88,1.5,8,8,0,0,1-2.8.55q-.48,0-.48-.32a1.16,1.16,0,0,1,.26-.63.8.8,0,0,1,.26-.32,13.18,13.18,0,0,0,3-2.9,45.5,45.5,0,0,0,3.06-4.38q1.51-2.43,2.93-5.12t2.61-5.18q1.19-2.48,2.09-4.54l1.37-3.17a.6.6,0,0,0,.05-.26.09.09,0,0,0-.11-.11.92.92,0,0,0-.26.11.41.41,0,0,1-.16.05,40.54,40.54,0,0,1-2.83,3.59,27,27,0,0,1-2.88,2.83,14,14,0,0,1-2.77,1.85,5.93,5.93,0,0,1-2.61.66,2.8,2.8,0,0,1-1.56-.4,2.64,2.64,0,0,1-.92-1,4.12,4.12,0,0,1-.42-1.32,9.09,9.09,0,0,1-.11-1.35,15.94,15.94,0,0,1,.74-4.65,24.29,24.29,0,0,1,2-4.75,28.5,28.5,0,0,1,3-4.41,26.94,26.94,0,0,1,3.7-3.67,18.28,18.28,0,0,1,4-2.51,9.78,9.78,0,0,1,4-.92,7.12,7.12,0,0,1,1.9.21,7.21,7.21,0,0,1,1.21.45q.47.24.77.42a1.2,1.2,0,0,0,.66.18h.21a.15.15,0,0,0,.11-.05l1.29-.42A6.06,6.06,0,0,1,129,23.4a1.83,1.83,0,0,1,.87.19A.64.64,0,0,1,130.25,24.19Zm-6.76,1.64a1,1,0,0,0-.29-.69,1.36,1.36,0,0,0-1-.32,4.36,4.36,0,0,0-2.51,1,17,17,0,0,0-2.72,2.54,33.41,33.41,0,0,0-2.67,3.49A38,38,0,0,0,112,35.65a31.2,31.2,0,0,0-1.58,3.56,8.28,8.28,0,0,0-.61,2.67,1.12,1.12,0,0,0,.21.79,1.22,1.22,0,0,0,.84.21,3.42,3.42,0,0,0,1.9-1.11A26.7,26.7,0,0,0,115.39,39q1.4-1.72,2.83-3.8t2.61-4q1.19-1.87,1.93-3.35A5.87,5.87,0,0,0,123.49,25.83Z" fill="#ffc933"/><path d="M152.06,23.93a6,6,0,0,1-.63,1.53q-.63,1.27-1.48,2.9t-1.61,3.33a13.07,13.07,0,0,0-1,2.8,1.31,1.31,0,0,1-.11.58.75.75,0,0,1-.74.53l-.63-.08a4,4,0,0,1-1.13-.37,3.4,3.4,0,0,1-1.11-.87,2.34,2.34,0,0,1-.5-1.58,5.17,5.17,0,0,1,.19-1.29,6.42,6.42,0,0,1,.71-1.61,1.22,1.22,0,0,0,.16-.48.19.19,0,0,0-.21-.21.88.88,0,0,0-.26.05l-.26.11-.26.16a21.62,21.62,0,0,0-3.12,3.12q-1.64,2-3.12,4t-2.67,4a32.38,32.38,0,0,0-1.72,3q-.21.48-.42.9t-.42.82l-.42.77q-1,1.85-4.28,1.85h-.5a2.6,2.6,0,0,1-.5-.05,1.19,1.19,0,0,1-.9-.34,1,1,0,0,1-.21-.55.91.91,0,0,1,.05-.37.21.21,0,0,1,.05-.16q.69-2,1.64-4.07l1.9-4.2q1-2.09,1.9-4.09t1.69-3.7q.74-1.69,1.19-3a6.69,6.69,0,0,0,.45-2,.91.91,0,0,0-.05-.37.74.74,0,0,1-.05-.32.94.94,0,0,1,.16-.48,1.15,1.15,0,0,1,.69-.42,11.94,11.94,0,0,1,1.27-.21L137,23.4q.63-.05,1.27-.05a6.4,6.4,0,0,1,1.53.16q.63.16.63.58a7.09,7.09,0,0,1-.63,2.14q-.63,1.56-1.37,3.25-.9,2-2,4.22a.15.15,0,0,0-.05.11V34a.14.14,0,0,0,.16.16.36.36,0,0,0,.26-.11.62.62,0,0,0,.11-.16q.26-.32,1-1.27t1.77-2.14q1.06-1.19,2.4-2.48a29.48,29.48,0,0,1,2.8-2.38,15.84,15.84,0,0,1,3-1.77,7.33,7.33,0,0,1,3-.69,2,2,0,0,1,.92.19A.64.64,0,0,1,152.06,23.93Z" fill="#ffc933"/><path d="M173.82,24a1.59,1.59,0,0,1-.16.53l-1,2q-.66,1.29-1.45,2.9t-1.61,3.43q-.82,1.82-1.51,3.56l-3.22,8q-1.06,2.8-2.27,5.44-1.06,2.27-2.32,4.75a28.46,28.46,0,0,1-2.59,4.23,16.68,16.68,0,0,1-2.54,2.69,19.89,19.89,0,0,1-2.93,2.09,16.31,16.31,0,0,1-2.9,1.35,7.8,7.8,0,0,1-2.46.48c-.32,0-.48-.12-.48-.37s.19-.55.58-.9a10.28,10.28,0,0,0,2.06-1.8,27.75,27.75,0,0,0,2.09-2.61q1-1.45,2-3.09t1.9-3.27q2.11-3.8,4.07-8.24.16-.37.66-1.37t1-2.14q.5-1.14.9-2.09a4.36,4.36,0,0,0,.4-1.27c0-.14-.05-.21-.16-.21a.43.43,0,0,0-.26.16.62.62,0,0,1-.11.16s-.23.29-.58.77-.82,1.06-1.4,1.77-1.27,1.46-2.06,2.27A26.86,26.86,0,0,1,155,45.5a14.77,14.77,0,0,1-2.69,1.72,6.07,6.07,0,0,1-2.67.69,3.56,3.56,0,0,1-1-.13,2.34,2.34,0,0,1-1.53-1.32,3.24,3.24,0,0,1-.26-1.4,9.83,9.83,0,0,1,1-4.2q1-2.14,2-4.3.74-1.74,1.53-3.27t1.45-3a22.37,22.37,0,0,0,1.08-2.8,9.3,9.3,0,0,0,.42-2.75,1.72,1.72,0,0,1,.13-.71q.13-.29.71-.4.74-.16,1.64-.32a10.31,10.31,0,0,1,1.79-.16,4,4,0,0,1,1.53.26.92.92,0,0,1,.63.9,1.6,1.6,0,0,1-.05.37l-.11.42a2.09,2.09,0,0,0-.16.42,34.42,34.42,0,0,1-1.32,3.54q-.9,2.11-1.85,4.07-1.11,2.32-2.38,4.75-.42,1.06-.71,1.72a12.28,12.28,0,0,0-.5,1.35,3.92,3.92,0,0,0-.21,1.06q0,1,.74,1a2.6,2.6,0,0,0,.79-.26,3.31,3.31,0,0,0,.37-.21,27,27,0,0,0,3.72-3.85,59.09,59.09,0,0,0,3.51-4.83q1.64-2.51,3-4.91t2.14-4.15a1.85,1.85,0,0,1,.37-.58,4,4,0,0,1,.42-.37,1.87,1.87,0,0,1,.53-.26,9.41,9.41,0,0,1,1.64-.34,11.48,11.48,0,0,1,1.16-.08,4.62,4.62,0,0,1,1.35.19Q173.82,23.56,173.82,24Z" fill="#ffc933"/><path d="M98.07,68.39q0,.91-1.64,1.73a23.61,23.61,0,0,0-4.64,3.09,72.39,72.39,0,0,0-5.37,4.87,90.26,90.26,0,0,0-7,8Q74.6,92,71,96.77t-6,8q-2.91,3.91-4.82,6.82Q56.78,116,53.77,120q-1.36,1.73-2.73,3.55t-2.73,3.59l-2.59,3.37-2.23,2.86a5.7,5.7,0,0,1-2,1.73,4.32,4.32,0,0,1-1.73.46,1.47,1.47,0,0,1-1.59-1.09,8.06,8.06,0,0,1-.32-2.27,72.88,72.88,0,0,1,.55-8q.55-4.78,1.23-9.78T41,104.86q.73-4.45,1.09-7.09a.48.48,0,0,0-.55-.54,1,1,0,0,0-.64.36l-.27.27q-2.64,3.27-4.46,5.82T33.13,108l-2.46,3.55Q27.31,116,24.12,120l-2.82,3.55q-1.46,1.82-2.82,3.59t-2.64,3.37q-1.28,1.59-2.27,2.86a5.87,5.87,0,0,1-2,1.73,4,4,0,0,1-1.68.46,1.51,1.51,0,0,1-1.41-.68,3,3,0,0,1-.41-1.59q0-2,.41-6t1-9q.64-5,1.41-10.14t1.59-9.46q.55-3,1-6.18t.91-6.32q.41-3.14.64-6.09t.32-5.5a20.89,20.89,0,0,0-.14-2.18A5.22,5.22,0,0,0,14.57,70a1.38,1.38,0,0,1-.27-.36,1.6,1.6,0,0,1-.18-.73q0-.82,1.27-1.27.82-.18,1.82-.36T19.35,67a25.24,25.24,0,0,1,2.77-.14q1.73,0,3,.09a5.49,5.49,0,0,1,2,.5,2.42,2.42,0,0,1,1.18,1.32,7.1,7.1,0,0,1,.36,2.55A63.77,63.77,0,0,1,28,78.94q-.64,4.91-1.82,10.55-.64,3.18-1.41,6.73t-1.41,6.87q-.64,3.32-1.09,6a26.26,26.26,0,0,0-.45,4c0,.49.15.73.45.73a2.94,2.94,0,0,0,1.27-.64,9.47,9.47,0,0,0,2.18-2.73q4.37-6.09,8-11.64L36.9,94q1.59-2.41,3-4.68t2.41-4.18a31.24,31.24,0,0,0,1.59-3.27,25.71,25.71,0,0,0,.82-2.55,17.19,17.19,0,0,0,.64-4.82,11.9,11.9,0,0,0-.23-2.32A7.56,7.56,0,0,0,44.31,70a1.37,1.37,0,0,1-.27-.36,1.6,1.6,0,0,1-.18-.73q0-.82,1.27-1.27Q46,67.48,47,67.3T49.14,67A26.49,26.49,0,0,1,52,66.85q1.73,0,3,.09a5,5,0,0,1,2,.55,2.61,2.61,0,0,1,1.18,1.41,7.5,7.5,0,0,1,.36,2.59,30.26,30.26,0,0,1-.27,3.77q-.27,2.14-.68,4.55t-1,4.91q-.55,2.5-1.09,5-.73,3.19-1.46,6.46t-1.27,6.37q-.55,3.09-.91,5.73a33.88,33.88,0,0,0-.36,4.55c0,.67.15,1,.45,1s.62-.24,1.14-.73a19.54,19.54,0,0,0,2.14-2.64q6-8.64,10.82-16.28,2-3.27,4-6.68t3.5-6.5A59.82,59.82,0,0,0,76,75.21a13.55,13.55,0,0,0,1-4.46,4.88,4.88,0,0,0-.27-1,2.41,2.41,0,0,1-.18-.91,1.13,1.13,0,0,1,.36-.82,2.58,2.58,0,0,1,1.55-.46l2.64-.18q1.27-.09,3-.14t3.91,0q3.91,0,8.73.27Q98.07,67.48,98.07,68.39Z" fill="none" stroke="#6e1017" stroke-linecap="round" stroke-linejoin="round" stroke-width="3.54"/><path d="M96.16,90A13.88,13.88,0,0,1,95,93.4q-1.14,2.73-2.5,5.82-1.64,3.64-3.64,8-1.82,4.46-4,8.82a34.08,34.08,0,0,0-3,8.09l-.36,1.09a7.26,7.26,0,0,0-.27,1.91,7.77,7.77,0,0,1-.18,1.59,1.45,1.45,0,0,1-1.09,1.14,12.61,12.61,0,0,1-2.77.68,23.66,23.66,0,0,1-3.77.32,8.88,8.88,0,0,1-2.68-.36,1.39,1.39,0,0,1-1.14-1.36,1.57,1.57,0,0,1,.09-.64.37.37,0,0,1,.09-.27q.82-2.36,2.46-6.18t3.37-7.55q2-4.37,4.27-9.09.82-1.73,1.68-3.59t1.59-3.64q.73-1.77,1.23-3.32a9,9,0,0,0,.5-2.73,1.57,1.57,0,0,0-.09-.64,1.26,1.26,0,0,1-.09-.55,1.64,1.64,0,0,1,.27-.82,2,2,0,0,1,1.18-.73A20.32,20.32,0,0,1,88.24,89l2-.18q1.09-.09,2.18-.09a11,11,0,0,1,2.64.27Q96.16,89.31,96.16,90Zm6-13.64a6.87,6.87,0,0,1-2.09,5,6.65,6.65,0,0,1-4.91,2.14,4,4,0,0,1-3-1.23,4.31,4.31,0,0,1-1.14-3,5.83,5.83,0,0,1,.64-2.64,8,8,0,0,1,1.64-2.23,8.66,8.66,0,0,1,2.23-1.55,5.72,5.72,0,0,1,2.5-.59,4,4,0,0,1,3,1.18A4.16,4.16,0,0,1,102.16,76.4Z" fill="none" stroke="#6e1017" stroke-linecap="round" stroke-linejoin="round" stroke-width="3.54"/><path d="M136.63,136.51a2.77,2.77,0,0,1-1.14,2,12.06,12.06,0,0,1-2.91,1.82,20.78,20.78,0,0,1-3.87,1.32,16.59,16.59,0,0,1-9-.27,11.76,11.76,0,0,1-4.18-2.32,10.83,10.83,0,0,1-2.77-3.77,12.43,12.43,0,0,1-1-5.14,19.53,19.53,0,0,1,1.09-5.91q1.09-3.36,2.55-6.82t3-6.59q1.5-3.14,2.41-5.32l.91-2q.36-.82.77-1.82t.68-1.82a3,3,0,0,0,.18-1.09q0-.91-.82-.91a8.28,8.28,0,0,0-1.46.45,1.37,1.37,0,0,0-.55.46q-3.18,3-6.14,6.37t-5.55,6.73q-2.59,3.37-4.64,6.37t-3.41,5.28q-.46.82-.91,1.55c-.3.49-.59,1-.86,1.41s-.53.89-.77,1.32a5.42,5.42,0,0,1-3.09,2.55,12.44,12.44,0,0,1-4.09.73,9.42,9.42,0,0,1-2.5-.36q-1.32-.36-1.32-1.36a1.59,1.59,0,0,1,.09-.64.38.38,0,0,1,.09-.27q.46-1.18,1.23-3t1.73-4l2-4.55q1-2.36,2.14-4.73,2.46-5.46,5.37-11.64.73-1.55,1.36-3.18.45-1.27.91-2.73a8.52,8.52,0,0,0,.45-2.46q-.09-.45-.14-.64a1.86,1.86,0,0,1,0-.45,2,2,0,0,1,.23-.91,1.76,1.76,0,0,1,1.14-.73,14.79,14.79,0,0,1,2.46-.46,29,29,0,0,1,3.91-.27,12,12,0,0,1,2.5.23q1,.23,1,1a13.15,13.15,0,0,1-1,4.32q-1,2.68-2.41,5.59t-2.82,5.78q-1.41,2.86-2.23,4.77a.26.26,0,0,0-.09.18v.27a.24.24,0,0,0,.27.27.61.61,0,0,0,.45-.18,1.06,1.06,0,0,0,.18-.27q.09-.18,1.41-1.87t3.37-4.18q2-2.5,4.68-5.32t5.41-5.28a36,36,0,0,1,5.46-4,9.75,9.75,0,0,1,4.87-1.59,5.59,5.59,0,0,1,3,.86,3.48,3.48,0,0,1,1.41,3.23,10.21,10.21,0,0,1-.36,2.5,19.12,19.12,0,0,1-1.27,3.32l-2,4.28-2.23,4.82q-.54,1.27-1.91,4.09T125,117.6q-1.41,3.37-2.46,6.73a19.89,19.89,0,0,0-1,5.73,6.75,6.75,0,0,0,2,5.18,8.28,8.28,0,0,0,5.87,1.91,16.06,16.06,0,0,0,2.5-.23,11.21,11.21,0,0,0,3-1,.73.73,0,0,0,.27-.09.64.64,0,0,0,.27,0,.61.61,0,0,1,.27,0,1.5,1.5,0,0,1,.59.14A.57.57,0,0,1,136.63,136.51Z" fill="none" stroke="#6e1017" stroke-linecap="round" stroke-linejoin="round" stroke-width="3.54"/><path d="M176.38,90.22A29.79,29.79,0,0,1,173.78,96q-2.32,4.41-5.41,11.32-2.09,4.82-3.82,9.19a93.3,93.3,0,0,1-4,8.73q-1.91,4.73-4,9.28-1.82,3.91-4.14,8.19a55.22,55.22,0,0,1-4.87,7.55,42.39,42.39,0,0,1-3.91,4.28,35.43,35.43,0,0,1-4.59,3.73,23.55,23.55,0,0,1-5,2.59,13.75,13.75,0,0,1-4.82,1q-.82,0-.82-.55a2,2,0,0,1,.45-1.09,1.38,1.38,0,0,1,.46-.55,22.7,22.7,0,0,0,5.23-5,78.42,78.42,0,0,0,5.28-7.55q2.59-4.19,5-8.82t4.5-8.91q2-4.27,3.59-7.82t2.37-5.46a1,1,0,0,0,.09-.46.16.16,0,0,0-.18-.18,1.58,1.58,0,0,0-.45.18.69.69,0,0,1-.27.09,69.65,69.65,0,0,1-4.87,6.18,46.46,46.46,0,0,1-5,4.87,24.22,24.22,0,0,1-4.78,3.18,10.21,10.21,0,0,1-4.5,1.14,4.82,4.82,0,0,1-2.68-.68,4.56,4.56,0,0,1-1.59-1.73,7.09,7.09,0,0,1-.73-2.27,15.61,15.61,0,0,1-.18-2.32,27.45,27.45,0,0,1,1.27-8,41.83,41.83,0,0,1,3.5-8.19,49.08,49.08,0,0,1,5.23-7.59,46.39,46.39,0,0,1,6.37-6.32,31.4,31.4,0,0,1,6.91-4.32A16.83,16.83,0,0,1,160.46,88a12.23,12.23,0,0,1,3.27.36,12.36,12.36,0,0,1,2.09.77q.82.41,1.32.73a2.06,2.06,0,0,0,1.14.32h.36a.26.26,0,0,0,.18-.09l2.23-.73a10.47,10.47,0,0,1,3.23-.55,3.15,3.15,0,0,1,1.5.32A1.1,1.1,0,0,1,176.38,90.22ZM164.73,93a1.72,1.72,0,0,0-.5-1.18,2.34,2.34,0,0,0-1.77-.55A7.52,7.52,0,0,0,158.14,93a29.37,29.37,0,0,0-4.68,4.37,57.62,57.62,0,0,0-4.59,6A65.73,65.73,0,0,0,145,110a53.79,53.79,0,0,0-2.73,6.14,14.25,14.25,0,0,0-1,4.59,1.93,1.93,0,0,0,.36,1.36,2.11,2.11,0,0,0,1.46.36q1.18,0,3.27-1.91a46,46,0,0,0,4.5-4.87q2.41-3,4.87-6.55t4.5-6.82q2-3.23,3.32-5.78A10.11,10.11,0,0,0,164.73,93Z" fill="none" stroke="#6e1017" stroke-linecap="round" stroke-linejoin="round" stroke-width="3.54"/><path d="M209,90.86a5.19,5.19,0,0,1-.59,1.82l-1.32,2.82q-.73,1.55-1.36,3.09a9.15,9.15,0,0,0-.73,2.64,1.47,1.47,0,0,1-.27.91,1.89,1.89,0,0,1-1.82.82c-.12,0-.49,0-1.09-.09a6.82,6.82,0,0,1-1.91-.5,4.79,4.79,0,0,1-1.77-1.27,3.63,3.63,0,0,1-.77-2.5,6.13,6.13,0,0,1,.32-2,13.54,13.54,0,0,1,.73-1.77c.27-.55.51-1,.73-1.5a3,3,0,0,0,.32-1.23.89.89,0,0,0-.86-1,14.06,14.06,0,0,0-2.14-.14,8.7,8.7,0,0,0-2.37.36,6.26,6.26,0,0,0-2.27,1.18,6.82,6.82,0,0,0-1.68,2.09,6.27,6.27,0,0,0-.68,3,7.93,7.93,0,0,0,.73,3,8,8,0,0,0,2.91,3.27,21.81,21.81,0,0,1,5,5.09,11.48,11.48,0,0,1,2.14,6.82,16.16,16.16,0,0,1-.77,4,16.47,16.47,0,0,1-2.87,5.41,17.75,17.75,0,0,1-5.82,4.73,20.34,20.34,0,0,1-9.64,2q-6.64,0-10.14-2.46a7.63,7.63,0,0,1-3.5-6.55,10.42,10.42,0,0,1,1.18-5.18,10.55,10.55,0,0,1,3-3.41,12.12,12.12,0,0,1,4-1.91,16.83,16.83,0,0,1,4.32-.59q1.73,0,1.73,1.18a1.16,1.16,0,0,1-.23.68l-.41.59a2.28,2.28,0,0,1-.55.55,11.13,11.13,0,0,0-4.37,8.46,4.71,4.71,0,0,0,1.68,4,5.6,5.6,0,0,0,3.5,1.32,6.61,6.61,0,0,0,4.18-1.27,9.76,9.76,0,0,0,2.59-3,12.34,12.34,0,0,0,1.32-3.5,14.77,14.77,0,0,0,.36-2.77,7.09,7.09,0,0,0-.59-3,9.63,9.63,0,0,0-1.68-2.46q-1.09-1.18-2.55-2.5T181.92,107a9.76,9.76,0,0,1-2.14-3.23,8.73,8.73,0,0,1-.59-3,9.6,9.6,0,0,1,1.59-5.41,13.51,13.51,0,0,1,4.23-4,22.36,22.36,0,0,1,6-2.55,26.75,26.75,0,0,1,7-.91,25.3,25.3,0,0,1,3.91.27q1.73.27,3,.55,1.45.36,2.55.73Q209,89.86,209,90.86Z" fill="none" stroke="#6e1017" stroke-linecap="round" stroke-linejoin="round" stroke-width="3.54"/><path d="M98.07,68.39q0,.91-1.64,1.73a23.61,23.61,0,0,0-4.64,3.09,72.39,72.39,0,0,0-5.37,4.87,90.26,90.26,0,0,0-7,8Q74.6,92,71,96.77t-6,8q-2.91,3.91-4.82,6.82Q56.78,116,53.77,120q-1.36,1.73-2.73,3.55t-2.73,3.59l-2.59,3.37-2.23,2.86a5.7,5.7,0,0,1-2,1.73,4.32,4.32,0,0,1-1.73.46,1.47,1.47,0,0,1-1.59-1.09,8.06,8.06,0,0,1-.32-2.27,72.88,72.88,0,0,1,.55-8q.55-4.78,1.23-9.78T41,104.86q.73-4.45,1.09-7.09a.48.48,0,0,0-.55-.54,1,1,0,0,0-.64.36l-.27.27q-2.64,3.27-4.46,5.82T33.13,108l-2.46,3.55Q27.31,116,24.12,120l-2.82,3.55q-1.46,1.82-2.82,3.59t-2.64,3.37q-1.28,1.59-2.27,2.86a5.87,5.87,0,0,1-2,1.73,4,4,0,0,1-1.68.46,1.51,1.51,0,0,1-1.41-.68,3,3,0,0,1-.41-1.59q0-2,.41-6t1-9q.64-5,1.41-10.14t1.59-9.46q.55-3,1-6.18t.91-6.32q.41-3.14.64-6.09t.32-5.5a20.89,20.89,0,0,0-.14-2.18A5.22,5.22,0,0,0,14.57,70a1.38,1.38,0,0,1-.27-.36,1.6,1.6,0,0,1-.18-.73q0-.82,1.27-1.27.82-.18,1.82-.36T19.35,67a25.24,25.24,0,0,1,2.77-.14q1.73,0,3,.09a5.49,5.49,0,0,1,2,.5,2.42,2.42,0,0,1,1.18,1.32,7.1,7.1,0,0,1,.36,2.55A63.77,63.77,0,0,1,28,78.94q-.64,4.91-1.82,10.55-.64,3.18-1.41,6.73t-1.41,6.87q-.64,3.32-1.09,6a26.26,26.26,0,0,0-.45,4c0,.49.15.73.45.73a2.94,2.94,0,0,0,1.27-.64,9.47,9.47,0,0,0,2.18-2.73q4.37-6.09,8-11.64L36.9,94q1.59-2.41,3-4.68t2.41-4.18a31.24,31.24,0,0,0,1.59-3.27,25.71,25.71,0,0,0,.82-2.55,17.19,17.19,0,0,0,.64-4.82,11.9,11.9,0,0,0-.23-2.32A7.56,7.56,0,0,0,44.31,70a1.37,1.37,0,0,1-.27-.36,1.6,1.6,0,0,1-.18-.73q0-.82,1.27-1.27Q46,67.48,47,67.3T49.14,67A26.49,26.49,0,0,1,52,66.85q1.73,0,3,.09a5,5,0,0,1,2,.55,2.61,2.61,0,0,1,1.18,1.41,7.5,7.5,0,0,1,.36,2.59,30.26,30.26,0,0,1-.27,3.77q-.27,2.14-.68,4.55t-1,4.91q-.55,2.5-1.09,5-.73,3.19-1.46,6.46t-1.27,6.37q-.55,3.09-.91,5.73a33.88,33.88,0,0,0-.36,4.55c0,.67.15,1,.45,1s.62-.24,1.14-.73a19.54,19.54,0,0,0,2.14-2.64q6-8.64,10.82-16.28,2-3.27,4-6.68t3.5-6.5A59.82,59.82,0,0,0,76,75.21a13.55,13.55,0,0,0,1-4.46,4.88,4.88,0,0,0-.27-1,2.41,2.41,0,0,1-.18-.91,1.13,1.13,0,0,1,.36-.82,2.58,2.58,0,0,1,1.55-.46l2.64-.18q1.27-.09,3-.14t3.91,0q3.91,0,8.73.27Q98.07,67.48,98.07,68.39Z" fill="#c20606"/><path d="M96.16,90A13.88,13.88,0,0,1,95,93.4q-1.14,2.73-2.5,5.82-1.64,3.64-3.64,8-1.82,4.46-4,8.82a34.08,34.08,0,0,0-3,8.09l-.36,1.09a7.26,7.26,0,0,0-.27,1.91,7.77,7.77,0,0,1-.18,1.59,1.45,1.45,0,0,1-1.09,1.14,12.61,12.61,0,0,1-2.77.68,23.66,23.66,0,0,1-3.77.32,8.88,8.88,0,0,1-2.68-.36,1.39,1.39,0,0,1-1.14-1.36,1.57,1.57,0,0,1,.09-.64.37.37,0,0,1,.09-.27q.82-2.36,2.46-6.18t3.37-7.55q2-4.37,4.27-9.09.82-1.73,1.68-3.59t1.59-3.64q.73-1.77,1.23-3.32a9,9,0,0,0,.5-2.73,1.57,1.57,0,0,0-.09-.64,1.26,1.26,0,0,1-.09-.55,1.64,1.64,0,0,1,.27-.82,2,2,0,0,1,1.18-.73A20.32,20.32,0,0,1,88.24,89l2-.18q1.09-.09,2.18-.09a11,11,0,0,1,2.64.27Q96.16,89.31,96.16,90Zm6-13.64a6.87,6.87,0,0,1-2.09,5,6.65,6.65,0,0,1-4.91,2.14,4,4,0,0,1-3-1.23,4.31,4.31,0,0,1-1.14-3,5.83,5.83,0,0,1,.64-2.64,8,8,0,0,1,1.64-2.23,8.66,8.66,0,0,1,2.23-1.55,5.72,5.72,0,0,1,2.5-.59,4,4,0,0,1,3,1.18A4.16,4.16,0,0,1,102.16,76.4Z" fill="#c20606"/><path d="M136.63,136.51a2.77,2.77,0,0,1-1.14,2,12.06,12.06,0,0,1-2.91,1.82,20.78,20.78,0,0,1-3.87,1.32,16.59,16.59,0,0,1-9-.27,11.76,11.76,0,0,1-4.18-2.32,10.83,10.83,0,0,1-2.77-3.77,12.43,12.43,0,0,1-1-5.14,19.53,19.53,0,0,1,1.09-5.91q1.09-3.36,2.55-6.82t3-6.59q1.5-3.14,2.41-5.32l.91-2q.36-.82.77-1.82t.68-1.82a3,3,0,0,0,.18-1.09q0-.91-.82-.91a8.28,8.28,0,0,0-1.46.45,1.37,1.37,0,0,0-.55.46q-3.18,3-6.14,6.37t-5.55,6.73q-2.59,3.37-4.64,6.37t-3.41,5.28q-.46.82-.91,1.55c-.3.49-.59,1-.86,1.41s-.53.89-.77,1.32a5.42,5.42,0,0,1-3.09,2.55,12.44,12.44,0,0,1-4.09.73,9.42,9.42,0,0,1-2.5-.36q-1.32-.36-1.32-1.36a1.59,1.59,0,0,1,.09-.64.38.38,0,0,1,.09-.27q.46-1.18,1.23-3t1.73-4l2-4.55q1-2.36,2.14-4.73,2.46-5.46,5.37-11.64.73-1.55,1.36-3.18.45-1.27.91-2.73a8.52,8.52,0,0,0,.45-2.46q-.09-.45-.14-.64a1.86,1.86,0,0,1,0-.45,2,2,0,0,1,.23-.91,1.76,1.76,0,0,1,1.14-.73,14.79,14.79,0,0,1,2.46-.46,29,29,0,0,1,3.91-.27,12,12,0,0,1,2.5.23q1,.23,1,1a13.15,13.15,0,0,1-1,4.32q-1,2.68-2.41,5.59t-2.82,5.78q-1.41,2.86-2.23,4.77a.26.26,0,0,0-.09.18v.27a.24.24,0,0,0,.27.27.61.61,0,0,0,.45-.18,1.06,1.06,0,0,0,.18-.27q.09-.18,1.41-1.87t3.37-4.18q2-2.5,4.68-5.32t5.41-5.28a36,36,0,0,1,5.46-4,9.75,9.75,0,0,1,4.87-1.59,5.59,5.59,0,0,1,3,.86,3.48,3.48,0,0,1,1.41,3.23,10.21,10.21,0,0,1-.36,2.5,19.12,19.12,0,0,1-1.27,3.32l-2,4.28-2.23,4.82q-.54,1.27-1.91,4.09T125,117.6q-1.41,3.37-2.46,6.73a19.89,19.89,0,0,0-1,5.73,6.75,6.75,0,0,0,2,5.18,8.28,8.28,0,0,0,5.87,1.91,16.06,16.06,0,0,0,2.5-.23,11.21,11.21,0,0,0,3-1,.73.73,0,0,0,.27-.09.64.64,0,0,0,.27,0,.61.61,0,0,1,.27,0,1.5,1.5,0,0,1,.59.14A.57.57,0,0,1,136.63,136.51Z" fill="#c20606"/><path d="M176.38,90.22A29.79,29.79,0,0,1,173.78,96q-2.32,4.41-5.41,11.32-2.09,4.82-3.82,9.19a93.3,93.3,0,0,1-4,8.73q-1.91,4.73-4,9.28-1.82,3.91-4.14,8.19a55.22,55.22,0,0,1-4.87,7.55,42.39,42.39,0,0,1-3.91,4.28,35.43,35.43,0,0,1-4.59,3.73,23.55,23.55,0,0,1-5,2.59,13.75,13.75,0,0,1-4.82,1q-.82,0-.82-.55a2,2,0,0,1,.45-1.09,1.38,1.38,0,0,1,.46-.55,22.7,22.7,0,0,0,5.23-5,78.42,78.42,0,0,0,5.28-7.55q2.59-4.19,5-8.82t4.5-8.91q2-4.27,3.59-7.82t2.37-5.46a1,1,0,0,0,.09-.46.16.16,0,0,0-.18-.18,1.58,1.58,0,0,0-.45.18.69.69,0,0,1-.27.09,69.65,69.65,0,0,1-4.87,6.18,46.46,46.46,0,0,1-5,4.87,24.22,24.22,0,0,1-4.78,3.18,10.21,10.21,0,0,1-4.5,1.14,4.82,4.82,0,0,1-2.68-.68,4.56,4.56,0,0,1-1.59-1.73,7.09,7.09,0,0,1-.73-2.27,15.61,15.61,0,0,1-.18-2.32,27.45,27.45,0,0,1,1.27-8,41.83,41.83,0,0,1,3.5-8.19,49.08,49.08,0,0,1,5.23-7.59,46.39,46.39,0,0,1,6.37-6.32,31.4,31.4,0,0,1,6.91-4.32A16.83,16.83,0,0,1,160.46,88a12.23,12.23,0,0,1,3.27.36,12.36,12.36,0,0,1,2.09.77q.82.41,1.32.73a2.06,2.06,0,0,0,1.14.32h.36a.26.26,0,0,0,.18-.09l2.23-.73a10.47,10.47,0,0,1,3.23-.55,3.15,3.15,0,0,1,1.5.32A1.1,1.1,0,0,1,176.38,90.22ZM164.73,93a1.72,1.72,0,0,0-.5-1.18,2.34,2.34,0,0,0-1.77-.55A7.52,7.52,0,0,0,158.14,93a29.37,29.37,0,0,0-4.68,4.37,57.62,57.62,0,0,0-4.59,6A65.73,65.73,0,0,0,145,110a53.79,53.79,0,0,0-2.73,6.14,14.25,14.25,0,0,0-1,4.59,1.93,1.93,0,0,0,.36,1.36,2.11,2.11,0,0,0,1.46.36q1.18,0,3.27-1.91a46,46,0,0,0,4.5-4.87q2.41-3,4.87-6.55t4.5-6.82q2-3.23,3.32-5.78A10.11,10.11,0,0,0,164.73,93Z" fill="#c20606"/><path d="M209,90.86a5.19,5.19,0,0,1-.59,1.82l-1.32,2.82q-.73,1.55-1.36,3.09a9.15,9.15,0,0,0-.73,2.64,1.47,1.47,0,0,1-.27.91,1.89,1.89,0,0,1-1.82.82c-.12,0-.49,0-1.09-.09a6.82,6.82,0,0,1-1.91-.5,4.79,4.79,0,0,1-1.77-1.27,3.63,3.63,0,0,1-.77-2.5,6.13,6.13,0,0,1,.32-2,13.54,13.54,0,0,1,.73-1.77c.27-.55.51-1,.73-1.5a3,3,0,0,0,.32-1.23.89.89,0,0,0-.86-1,14.06,14.06,0,0,0-2.14-.14,8.7,8.7,0,0,0-2.37.36,6.26,6.26,0,0,0-2.27,1.18,6.82,6.82,0,0,0-1.68,2.09,6.27,6.27,0,0,0-.68,3,7.93,7.93,0,0,0,.73,3,8,8,0,0,0,2.91,3.27,21.81,21.81,0,0,1,5,5.09,11.48,11.48,0,0,1,2.14,6.82,16.16,16.16,0,0,1-.77,4,16.47,16.47,0,0,1-2.87,5.41,17.75,17.75,0,0,1-5.82,4.73,20.34,20.34,0,0,1-9.64,2q-6.64,0-10.14-2.46a7.63,7.63,0,0,1-3.5-6.55,10.42,10.42,0,0,1,1.18-5.18,10.55,10.55,0,0,1,3-3.41,12.12,12.12,0,0,1,4-1.91,16.83,16.83,0,0,1,4.32-.59q1.73,0,1.73,1.18a1.16,1.16,0,0,1-.23.68l-.41.59a2.28,2.28,0,0,1-.55.55,11.13,11.13,0,0,0-4.37,8.46,4.71,4.71,0,0,0,1.68,4,5.6,5.6,0,0,0,3.5,1.32,6.61,6.61,0,0,0,4.18-1.27,9.76,9.76,0,0,0,2.59-3,12.34,12.34,0,0,0,1.32-3.5,14.77,14.77,0,0,0,.36-2.77,7.09,7.09,0,0,0-.59-3,9.63,9.63,0,0,0-1.68-2.46q-1.09-1.18-2.55-2.5T181.92,107a9.76,9.76,0,0,1-2.14-3.23,8.73,8.73,0,0,1-.59-3,9.6,9.6,0,0,1,1.59-5.41,13.51,13.51,0,0,1,4.23-4,22.36,22.36,0,0,1,6-2.55,26.75,26.75,0,0,1,7-.91,25.3,25.3,0,0,1,3.91.27q1.73.27,3,.55,1.45.36,2.55.73Q209,89.86,209,90.86Z" fill="#c20606"/></svg>