<svg id="31bf9912-482c-4770-b0dc-f4aee8c5a0a6" data-name="Layer 1" xmlns="http://www.w3.org/2000/svg" viewBox="0 0 400 400"><title>Artboard 1 copy 5</title><path d="M44.22,142.72a18.46,18.46,0,0,1,0-26.07L141.4,19.47a18.44,18.44,0,0,1,26.07,0l78.07,78.07a5.79,5.79,0,0,0,8.18-8.18L175.65,11.29a30,30,0,0,0-42.44,0L36,108.47a30,30,0,0,0,0,42.44l78.19,78.19a5.79,5.79,0,0,0,8.18-8.18Z" fill="#fff"/><path d="M344.45,190.23l3.67-3.67a29.66,29.66,0,0,0-40.51-43.3l-35.35-35.35a5.79,5.79,0,0,0-8.18,8.18l35.29,35.29-11.8,11.8L158.52,34.13a5.79,5.79,0,0,0-8.18,0L58.87,125.59a5.79,5.79,0,0,0,0,8.18L187.93,262.83l-11.8,11.8L141,239.46a5.79,5.79,0,0,0-8.18,8.18L168,282.87a29.67,29.67,0,0,0,43.3,40.51L215,319.7l39.2,15a22,22,0,0,0,23.37-5l17.17-17.17a5.79,5.79,0,1,0-8.18-8.18l-17.17,17.17a10.42,10.42,0,0,1-11.07,2.36l-34.36-13.1L335.49,199.19l13.1,34.36a10.42,10.42,0,0,1-2.36,11.07l-41.15,41.15a5.79,5.79,0,1,0,8.18,8.18l41.15-41.15a22,22,0,0,0,5-23.37ZM154.43,46.4l76.36,76.36c-5.83,3.46-11.35,7.09-16.44,10.84a25.63,25.63,0,0,1-25,2.87c-46-19.31-86.86-6-107.48,3.92L71.15,129.69ZM90.58,149.12c19.77-8.75,55-18.45,94.29-2a37.26,37.26,0,0,0,36.35-4.22,189.21,189.21,0,0,1,18-11.7l40.14,40.14-83.28,83.28Zm86.94,166.07a18.1,18.1,0,0,1,0-25.59L314.35,152.78a18.1,18.1,0,0,1,25.59,25.59L203.12,315.19a18.12,18.12,0,0,1-25.59,0Z" fill="#fff"/><path d="M218.31,176.8h-.11a5.79,5.79,0,0,0,0,11.57h.11a5.79,5.79,0,0,0,0-11.57Z" fill="#fff"/><path d="M146.88,150.1h-.11a5.79,5.79,0,0,0,0,11.57h.11a5.79,5.79,0,0,0,0-11.57Z" fill="#fff"/><path d="M308.37,332.64h-.11a5.79,5.79,0,0,0,0,11.57h.11a5.79,5.79,0,0,0,0-11.57Z" fill="#fff"/><path d="M321.3,316.64h.11a5.79,5.79,0,0,0,0-11.57h-.11a5.79,5.79,0,0,0,0,11.57Z" fill="#fff"/><path d="M367,305.07h-.11a5.79,5.79,0,0,0,0,11.57H367a5.79,5.79,0,0,0,0-11.57Z" fill="#fff"/><path d="M351.09,385.93H351a5.79,5.79,0,0,0,0,11.57h.11a5.79,5.79,0,0,0,0-11.57Z" fill="#fff"/><path d="M264,369.78h-.11a5.79,5.79,0,0,0,0,11.57h.11a5.79,5.79,0,0,0,0-11.57Z" fill="#fff"/><path d="M321.46,362.51h-.08a5.79,5.79,0,1,0,0,11.57h.08a5.79,5.79,0,1,0,0-11.57Z" fill="#fff"/><path d="M210.67,198.6h-.11a5.79,5.79,0,0,0,0,11.57h.11a5.79,5.79,0,0,0,0-11.57Z" fill="#fff"/></svg>