<svg id="b5fe44b6-48de-4c07-aae5-660c8b356612" data-name="Layer 1" xmlns="http://www.w3.org/2000/svg" viewBox="0 0 400 400"><title>Artboard 1 copy 9</title><path d="M198.7,65.89a94.78,94.78,0,0,0-34.64-34.64,93.1,93.1,0,0,0-47.78-12.76A93.1,93.1,0,0,0,68.51,31.25,94.75,94.75,0,0,0,33.87,65.89,93.1,93.1,0,0,0,21.1,113.66a93.12,93.12,0,0,0,12.76,47.78A94.78,94.78,0,0,0,68.5,196.08a93.11,93.11,0,0,0,47.78,12.76,93.11,93.11,0,0,0,47.78-12.76,94.75,94.75,0,0,0,34.64-34.64,93.12,93.12,0,0,0,12.76-47.78A93.12,93.12,0,0,0,198.7,65.89ZM106,145,92.79,125.51,81.43,145H64l20-32.29L63.43,82.31h18L94.3,101.2l11.09-18.89h17.3L102.9,113.88,124,145Zm63.13,0H133.74V82.31h15.17V133.4h20.22Z" fill="#e02535"/><path d="M118.28,215.34a100,100,0,0,1-51.05-13.65,101.64,101.64,0,0,1-37-37A100,100,0,0,1,16.6,113.66,99.94,99.94,0,0,1,30.25,62.61a101.61,101.61,0,0,1,37-37A99.94,99.94,0,0,1,118.28,12a100,100,0,0,1,51.05,13.65,101.63,101.63,0,0,1,37,37h0A100,100,0,0,1,220,113.66a100,100,0,0,1-13.65,51.05,101.61,101.61,0,0,1-37,37A100,100,0,0,1,118.28,215.34Zm0-190.36a87.1,87.1,0,0,0-44.5,11.88,88.76,88.76,0,0,0-32.3,32.3,87.1,87.1,0,0,0-11.88,44.5,87.13,87.13,0,0,0,11.88,44.5,88.79,88.79,0,0,0,32.3,32.3,89.29,89.29,0,0,0,89,0,88.76,88.76,0,0,0,32.3-32.3A87.11,87.11,0,0,0,207,113.66a87.13,87.13,0,0,0-11.88-44.5,88.79,88.79,0,0,0-32.3-32.3A87.11,87.11,0,0,0,118.28,25Z" fill="#e02535"/><path d="M210.46,86.13a17.7,17.7,0,0,1,26.65-5.69,7.19,7.19,0,0,0,11.4-3.75A17.71,17.71,0,0,1,283,78.31a7.2,7.2,0,0,0,9.89,5.43A22.69,22.69,0,0,1,324.17,102a7.14,7.14,0,0,0,6.29,6.29,22.59,22.59,0,0,1,17.72,12.57,7.15,7.15,0,0,0,7.31,4A22.42,22.42,0,0,1,368.43,127a5.64,5.64,0,1,0,5-10.1A33.55,33.55,0,0,0,357,113.41a33.79,33.79,0,0,0-22.08-15.79A34,34,0,0,0,293,71.83a29,29,0,0,0-53.45-3.22,29,29,0,0,0-35.19,6.61,91.51,91.51,0,0,1,4.6,12.84A7.07,7.07,0,0,0,210.46,86.13Z" fill="#e02535"/><path d="M392.5,216.94a28.81,28.81,0,0,0-10.41-22.26,29,29,0,0,0,.87-23.93A33.91,33.91,0,0,0,392,152a5.64,5.64,0,1,0-11.18-1.54,22.67,22.67,0,0,1-7.56,14,7.22,7.22,0,0,0-1.56,8.84,17.7,17.7,0,0,1-.94,18.46,7.19,7.19,0,0,0,2.12,10.17,17.62,17.62,0,0,1,8.34,15,17.81,17.81,0,0,1-11.36,16.53,7.16,7.16,0,0,0-4.57,7.12q0,.31,0,.63a11.93,11.93,0,0,1-3.14,8.08,7.16,7.16,0,0,0,0,9.74c3.19,3.48,4.93,9.58.42,16.39-3.64,2.92-7.37,4.1-11.08,3.52a7.2,7.2,0,0,0-7.63,4.07,17.77,17.77,0,0,1-16.08,10.3c-.5,0-1,0-1.51-.07a7.16,7.16,0,0,0-7.54,5.29,17.71,17.71,0,0,1-29.91,7.6,7.24,7.24,0,0,0-5.21-2.23h0a7.23,7.23,0,0,0-5.21,2.23,17.55,17.55,0,0,1-12.81,5.49h-.39a7.15,7.15,0,0,0-6.76,4.25A17.7,17.7,0,0,1,224.83,312a7.21,7.21,0,0,0-5.76-5.77,17.72,17.72,0,0,1-10.37-6.06,7.18,7.18,0,0,0-12.3,2.28,17.7,17.7,0,0,1-29,7,7.15,7.15,0,0,0-9.64-.29A17.7,17.7,0,0,1,129.07,300a7.22,7.22,0,0,0-5.34-5.28,17.71,17.71,0,0,1-11.9-24.68,7.2,7.2,0,0,0,0-6.1,17.7,17.7,0,0,1,7.77-23.11,7.19,7.19,0,0,0,3.73-7.41,17.71,17.71,0,0,1,9.27-18.29A7.11,7.11,0,0,0,136.3,210a7.21,7.21,0,0,0-.13-3,96.16,96.16,0,0,1-14.08,1.7,28.92,28.92,0,0,0-10.25,22.12q0,.74,0,1.49a28.93,28.93,0,0,0-11.27,14.35L73.17,263.61a.77.77,0,0,1-.9-.09,39.53,39.53,0,0,0-8.68-5.43,5.64,5.64,0,1,0-4.7,10.26,28.2,28.2,0,0,1,6.2,3.88,12.07,12.07,0,0,0,14,1L99.22,260.8a28.55,28.55,0,0,0,1.65,6.21,29,29,0,0,0,17.94,38.05,28.89,28.89,0,0,0,4.92,8.91l-14.09,8.7a12.07,12.07,0,0,0-5.4,13,28.33,28.33,0,1,1-55.27.12,12,12,0,0,0-8.74-14.17,28.32,28.32,0,0,1-9.73-50.43c.48-.34,1-.68,1.47-1a5.64,5.64,0,0,0-6-9.54c-.69.44-1.37.9-2,1.37a39.61,39.61,0,0,0,13.59,70.54.68.68,0,0,1,.46.75,39.57,39.57,0,0,0,38.78,48.23,39.14,39.14,0,0,0,18.19-4.45,39.69,39.69,0,0,0,20.32-43.93.77.77,0,0,1,.33-.85L133,321.51a29,29,0,0,0,29.22-1.63,29,29,0,0,0,42.24-8.23,29,29,0,0,0,9.87,5,29,29,0,0,0,53.21,6.19,28.63,28.63,0,0,0,16.05-6.21,28.7,28.7,0,0,0,18,6.28,29,29,0,0,0,27-18.32,29.11,29.11,0,0,0,24.15-14.23c4.75.12,11-1.2,17.49-6.62a7.33,7.33,0,0,0,1.31-1.43c7.15-10.25,5.85-21,1.1-28.14a23.16,23.16,0,0,0,3.89-11.34A29.2,29.2,0,0,0,392.5,216.94Z" fill="#e02535"/><path d="M172.83,242.35a5.64,5.64,0,0,0-1.36-11.21,15.89,15.89,0,0,0,1.89,31.66,16.21,16.21,0,0,0,1.95-.12,5.64,5.64,0,0,0-1.36-11.21,4.6,4.6,0,0,1-5.12-4A4.6,4.6,0,0,1,172.83,242.35Z" fill="#e02535"/><path d="M272,155.38h.37a5.64,5.64,0,0,0,5.63-5.28,20.53,20.53,0,0,0-35.15-15.69A17.45,17.45,0,0,0,213.4,146a5.64,5.64,0,0,0,11.26.72,6.16,6.16,0,0,1,12.3.79,5.64,5.64,0,0,0,2.63,5.14l.34.19.14.08a5.64,5.64,0,0,0,1.59.52l.57.07h.7l.36,0,.17,0,.38-.07.15,0,.38-.11.14,0,.36-.15.14-.06.34-.18.14-.08.31-.2.14-.1.28-.22.14-.12.25-.24.13-.14.22-.25.13-.16.18-.26.12-.18.16-.28.11-.19c0-.1.09-.19.13-.29l.09-.21c0-.1.07-.21.1-.32s0-.14.07-.21.05-.24.08-.36,0-.12,0-.18.05-.37.06-.56a9.25,9.25,0,1,1,18.47,1.18A5.64,5.64,0,0,0,272,155.38Z" fill="#e02535"/><path d="M323.15,233.08a5.64,5.64,0,0,0-.84,11.26c.63,0,1.25.07,1.88.07a25.05,25.05,0,0,0,1.84-50,5.64,5.64,0,1,0-.84,11.26,13.76,13.76,0,0,1-2,27.45Z" fill="#e02535"/></svg>